<svg version="1.1" viewBox="0.0 0.0 960.0 720.0" fill="none" stroke="none" stroke-linecap="square" stroke-miterlimit="10" xmlns:xlink="http://www.w3.org/1999/xlink" xmlns="http://www.w3.org/2000/svg"><clipPath id="p.0"><path d="m0 0l960.0 0l0 720.0l-960.0 0l0 -720.0z" clip-rule="nonzero"/></clipPath><g clip-path="url(#p.0)"><path fill="#000000" fill-opacity="0.0" d="m0 0l960.0 0l0 720.0l-960.0 0z" fill-rule="evenodd"/><path fill="#cfe2f3" d="m333.3595 12.173228l116.72443 0l0 694.1102l-116.72443 0z" fill-rule="evenodd"/><path stroke="#000000" stroke-width="1.0" stroke-linejoin="round" stroke-linecap="butt" d="m333.3595 12.173228l116.72443 0l0 694.1102l-116.72443 0z" fill-rule="evenodd"/><path fill="#38761d" d="m393.35452 35.21397l0 17.53125l3.234375 0q1.15625 0 1.640625 0.453125q0.5 0.4375 0.5 1.15625q0 0.703125 -0.5 1.15625q-0.484375 0.4375 -1.640625 0.4375l-9.671875 0q-1.15625 0 -1.65625 -0.4375q-0.484375 -0.453125 -0.484375 -1.171875q0 -0.703125 0.484375 -1.140625q0.5 -0.453125 1.65625 -0.453125l3.234375 0l0 -13.359375l-2.859375 0.75q-0.6875 0.1875 -1.03125 0.1875q-0.609375 0 -1.0625 -0.484375q-0.4375 -0.484375 -0.4375 -1.1875q0 -0.640625 0.328125 -1.0q0.328125 -0.375 1.375 -0.65625l6.890625 -1.78125z" fill-rule="nonzero"/><path fill="#38761d" d="m388.72952 128.74522l7.015625 0q0.578125 -0.46875 1.09375 -0.46875q0.734375 0 1.15625 0.484375q0.4375 0.484375 0.4375 1.65625l0 1.53125l-14.59375 0l0 -3.390625q8.65625 -7.1406326 10.453125 -9.187508q0.90625 -1.046875 0.90625 -1.984375q0 -1.171875 -1.03125 -2.0625q-1.015625 -0.90625 -2.71875 -0.90625q-1.71875 0 -2.859375 1.0q-0.59375 0.53125 -0.953125 1.578125q-0.21875 0.65625 -0.609375 0.9375q-0.375 0.28125 -0.9375 0.28125q-0.65625 0 -1.140625 -0.46875q-0.46875 -0.46875 -0.46875 -1.09375q0 -0.9375 0.859375 -2.34375q0.875 -1.40625 2.53125 -2.25q1.671875 -0.84375 3.625 -0.84375q3.03125 0 4.96875 1.84375q1.9375 1.828125 1.9375 4.4375q0 1.328125 -0.5625 2.46875q-0.546875 1.125 -2.65625 3.125q-1.65625 1.578125 -6.453125 5.6562576z" fill-rule="nonzero"/><path fill="#38761d" d="m396.29202 197.24522q1.421875 0.96875 2.125 2.25q0.703125 1.265625 0.703125 2.84375q0 1.703125 -0.9375 3.15625q-0.921875 1.4375 -2.6875 2.1875q-1.765625 0.734375 -4.625 0.734375q-3.71875 0 -5.59375 -1.15625q-1.046875 -0.65625 -1.046875 -1.5625q0 -0.6875 0.453125 -1.15625q0.46875 -0.484375 1.125 -0.484375q0.453125 0 0.9375 0.3125q0.6875 0.46875 1.296875 0.625q0.9375 0.21875 2.578125 0.21875q2.796875 0 4.046875 -0.71875q1.25 -0.734375 1.25 -2.0625q0 -0.984375 -0.734375 -1.890625q-0.71875 -0.921875 -1.9375 -1.421875q-0.703125 -0.28125 -2.375 -0.390625q-0.796875 -0.046875 -1.234375 -0.484375q-0.421875 -0.453125 -0.421875 -1.109375q0 -0.6875 0.46875 -1.15625q0.46875 -0.46875 1.1875 -0.46875q1.59375 0 1.703125 -0.015625q0.625 -0.0625 1.25 -0.40625q0.625 -0.34375 1.0 -0.9375q0.390625 -0.609375 0.390625 -1.25q0 -1.015625 -0.90625 -1.75q-0.890625 -0.75 -2.6875 -0.75q-2.3125 0 -3.53125 1.34375q-0.359375 0.390625 -0.578125 0.5q-0.328125 0.171875 -0.734375 0.171875q-0.65625 0 -1.125 -0.46875q-0.46875 -0.46875 -0.46875 -1.15625q0 -1.078125 1.4375 -2.09375q2.09375 -1.484375 5.234375 -1.484375q2.96875 0 4.765625 1.6875q1.796875 1.6875 1.796875 4.0625q0 1.234375 -0.53125 2.3125q-0.53125 1.0625 -1.59375 1.96875z" fill-rule="nonzero"/><path fill="#0000ff" d="m396.41702 263.72958l0 12.53125q1.015625 0 1.5 0.453125q0.484375 0.4375 0.484375 1.140625q0 0.703125 -0.5 1.15625q-0.484375 0.453125 -1.484375 0.453125l0 1.28125q1.015625 0 1.5 0.453125q0.484375 0.453125 0.484375 1.15625q0 0.703125 -0.5 1.15625q-0.484375 0.4375 -1.640625 0.4375l-4.296875 0q-1.15625 0 -1.65625 -0.4375q-0.484375 -0.453125 -0.484375 -1.171875q0 -0.703125 0.484375 -1.140625q0.5 -0.453125 1.65625 -0.453125l1.25 0l0 -1.28125l-8.703125 0l0 -2.671875l7.671875 -13.0625l4.234375 0zm-3.203125 12.53125l0 -7.875l-4.640625 7.875l4.640625 0z" fill-rule="nonzero"/><path fill="#0000ff" d="m389.0264 342.9327l0 3.8125q1.78125 -0.5625 3.234375 -0.5625q2.953125 0 4.90625 2.015625q1.953125 2.015625 1.953125 5.203125q0 3.28125 -1.984375 5.15625q-1.96875 1.859375 -6.046875 1.859375q-3.59375 0 -5.6875 -1.359375q-1.21875 -0.78125 -1.21875 -1.796875q0 -0.640625 0.46875 -1.109375q0.484375 -0.484375 1.140625 -0.484375q0.546875 0 1.1875 0.53125q0.640625 0.515625 1.34375 0.71875q1.0 0.296875 2.5625 0.296875q2.90625 0 3.96875 -0.921875q1.0625 -0.9375 1.0625 -2.859375q0 -1.890625 -1.03125 -2.96875q-1.015625 -1.078125 -2.625 -1.078125q-1.734375 0 -3.953125 1.125q-0.5 0.265625 -0.875 0.265625q-0.6875 0 -1.15625 -0.5q-0.453125 -0.5 -0.453125 -1.296875l0 -9.25l9.796875 0q1.15625 0 1.640625 0.453125q0.5 0.4375 0.5 1.15625q0 0.703125 -0.5 1.15625q-0.484375 0.4375 -1.640625 0.4375l-6.59375 0z" fill-rule="nonzero"/><path fill="#0000ff" d="m388.7139 425.01083q1.15625 -0.96875 2.203125 -1.40625q1.046875 -0.453125 2.234375 -0.453125q2.515625 0 4.40625 2.0q1.890625 2.0 1.890625 5.015625q0 2.796875 -1.765625 4.53125q-1.75 1.71875 -4.765625 1.71875q-2.515625 0 -4.140625 -1.171875q-1.625 -1.171875 -2.453125 -3.609375q-0.828125 -2.4375 -0.828125 -5.4375q0 -3.59375 1.640625 -5.96875q1.640625 -2.390625 3.859375 -3.703125q2.21875 -1.3125 4.6875 -1.3125q1.953125 0 3.03125 0.765625q0.703125 0.515625 0.703125 1.3125q0 0.703125 -0.46875 1.1875q-0.46875 0.46875 -1.125 0.46875q-0.375 0 -1.078125 -0.375q-0.421875 -0.21875 -0.8125 -0.21875q-1.53125 0 -3.171875 0.875q-1.640625 0.859375 -2.84375 2.65625q-0.828125 1.25 -1.203125 3.125zm0.46875 4.953125q0.5 1.875 1.34375 2.5625q0.859375 0.6875 2.4375 0.6875q1.578125 0 2.421875 -0.828125q0.859375 -0.828125 0.859375 -2.25q0 -1.625 -0.984375 -2.703125q-0.96875 -1.078125 -2.1875 -1.078125q-0.96875 0 -2.078125 0.953125q-1.09375 0.953125 -1.8125 2.65625z" fill-rule="nonzero"/><path fill="#ff9900" d="m395.0264 494.9327l-7.328125 0q-0.0625 0.9375 -0.484375 1.359375q-0.421875 0.40625 -1.109375 0.40625q-0.71875 0 -1.171875 -0.484375q-0.4375 -0.484375 -0.4375 -1.640625l0 -2.84375l13.90625 0l0 3.203125l-5.1875 15.4375q-0.328125 0.96875 -0.734375 1.296875q-0.390625 0.3125 -0.953125 0.3125q-0.671875 0 -1.15625 -0.46875q-0.46875 -0.46875 -0.46875 -1.078125q0 -0.34375 0.25 -1.09375l4.875 -14.40625z" fill-rule="nonzero"/><path fill="#ff9900" d="m396.26077 577.7139q1.234375 0.953125 1.84375 2.171875q0.625 1.203125 0.625 2.65625q0 1.609375 -0.796875 2.96875q-0.78125 1.34375 -2.46875 2.125q-1.6875 0.78125 -3.75 0.78125q-2.0625 0 -3.71875 -0.78125q-1.65625 -0.78125 -2.453125 -2.140625q-0.78125 -1.359375 -0.78125 -2.953125q0 -1.453125 0.609375 -2.65625q0.625 -1.21875 1.859375 -2.171875q-1.078125 -1.0 -1.625 -2.125q-0.546875 -1.125 -0.546875 -2.375q0 -2.453125 1.875 -4.21875q1.875 -1.78125 4.8125 -1.78125q2.9375 0 4.8125 1.78125q1.875 1.765625 1.875 4.21875q0 1.265625 -0.546875 2.390625q-0.53125 1.125 -1.625 2.109375zm-1.109375 -4.4375q0 -1.1875 -0.9375 -2.015625q-0.921875 -0.84375 -2.5 -0.84375q-1.59375 0 -2.53125 0.84375q-0.921875 0.828125 -0.921875 2.015625q0 1.203125 0.921875 2.046875q0.9375 0.828125 2.53125 0.828125q1.578125 0 2.5 -0.828125q0.9375 -0.84375 0.9375 -2.046875zm0.375 9.421875q0 -1.265625 -1.09375 -2.28125q-1.078125 -1.03125 -2.6875 -1.03125q-1.609375 0 -2.703125 1.03125q-1.078125 1.015625 -1.078125 2.3125q0 1.0 0.9375 1.75q0.9375 0.734375 2.84375 0.734375q1.921875 0 2.84375 -0.734375q0.9375 -0.75 0.9375 -1.78125z" fill-rule="nonzero"/><path fill="#ff9900" d="m396.22952 655.54205q-1.203125 1.03125 -2.203125 1.46875q-1.0 0.421875 -2.109375 0.421875q-2.578125 0 -4.515625 -2.0625q-1.921875 -2.0625 -1.921875 -5.125q0 -2.390625 1.328125 -4.34375q1.8125 -2.6875 5.109375 -2.6875q2.359375 0 4.125 1.421875q1.765625 1.40625 2.59375 4.078125q0.828125 2.65625 0.828125 5.546875q0 4.90625 -3.796875 7.875q-2.9375 2.28125 -6.4375 2.28125q-1.9375 0 -3.0 -0.78125q-0.71875 -0.515625 -0.71875 -1.359375q0 -0.6875 0.453125 -1.140625q0.46875 -0.46875 1.140625 -0.46875q0.375 0 0.84375 0.234375q0.609375 0.3125 1.28125 0.3125q2.421875 0 4.46875 -1.640625q2.046875 -1.65625 2.53125 -4.03125zm-0.453125 -5.046875q-0.515625 -2.21875 -1.53125 -3.140625q-1.0 -0.9375 -2.296875 -0.9375q-1.359375 0 -2.3125 1.046875q-0.953125 1.03125 -0.953125 2.75q0 1.796875 0.953125 2.90625q0.96875 1.109375 2.203125 1.109375q2.171875 0 3.9375 -3.734375z" fill-rule="nonzero"/><path fill="#cfe2f3" d="m20.543306 11.401575l214.58269 0l0 695.65356l-214.58269 0z" fill-rule="evenodd"/><path stroke="#000000" stroke-width="1.0" stroke-linejoin="round" stroke-linecap="butt" d="m20.543306 11.401575l214.58269 0l0 695.65356l-214.58269 0z" fill-rule="evenodd"/><path fill="#000000" d="m128.48308 47.07334l0 18.5625l4.5 0q0.46875 0 0.671875 0.1875q0.203125 0.171875 0.203125 0.46875q0 0.28125 -0.203125 0.46875q-0.203125 0.1875 -0.671875 0.1875l-10.3125 0q-0.46875 0 -0.671875 -0.1875q-0.203125 -0.1875 -0.203125 -0.46875q0 -0.296875 0.203125 -0.46875q0.203125 -0.1875 0.671875 -0.1875l4.5 0l0 -16.75l-4.28125 1.34375q-0.3125 0.09375 -0.453125 0.09375q-0.234375 0 -0.4375 -0.1875q-0.1875 -0.203125 -0.1875 -0.46875q0 -0.234375 0.15625 -0.4375q0.125 -0.125 0.515625 -0.265625l6.0 -1.890625z" fill-rule="nonzero"/><path fill="#000000" d="m122.1862 141.63585l10.078125 0l0 -0.515625q0 -0.46875 0.1875 -0.671875q0.1875 -0.203125 0.484375 -0.203125q0.28125 0 0.46875 0.203125q0.1875 0.203125 0.1875 0.671875l0 1.828125l-12.6875 0l0 -1.9375q4.0 -3.59375 7.78125 -7.3125q1.765625 -1.734375 2.421875 -2.546875q0.65625 -0.8125 0.890625 -1.421875q0.25 -0.625 0.25 -1.25q0 -1.6875076 -1.359375 -2.9843826q-1.359375 -1.296875 -3.28125 -1.296875q-1.71875 0 -3.046875 0.984375q-1.328125 0.984375 -1.71875 2.4375q-0.09375 0.375 -0.234375 0.48438263q-0.1875 0.15625 -0.4375 0.15625q-0.265625 0 -0.453125 -0.171875q-0.171875 -0.18750763 -0.171875 -0.43750763q0 -0.75 0.8125 -2.03125q0.828125 -1.28125 2.265625 -2.015625q1.453125 -0.734375 2.96875 -0.734375q2.453125 0 4.21875 1.703125q1.765625 1.703125 1.765625 3.8593826q0 0.90625 -0.296875 1.671875q-0.296875 0.75 -1.015625 1.65625q-0.703125 0.890625 -2.546875 2.703125q-4.625 4.5625 -7.53125 7.078125l0 0.09375z" fill-rule="nonzero"/><path fill="#000000" d="m130.52995 208.27647q1.8125 0.8125 2.765625 2.234375q0.953125 1.40625 0.953125 2.9375q0 2.359375 -1.921875 4.171875q-1.90625 1.796875 -4.78125 1.796875q-1.6875 0 -3.5 -0.71875q-1.8125 -0.71875 -2.53125 -1.46875q-0.234375 -0.25 -0.234375 -0.53125q0 -0.25 0.171875 -0.4375q0.1875 -0.1875 0.4375 -0.1875q0.25 0 0.5625 0.234375q2.421875 1.796875 5.125 1.796875q2.28125 0 3.8125 -1.421875q1.546875 -1.4375 1.546875 -3.1875q0 -1.171875 -0.765625 -2.296875q-0.75 -1.125 -2.171875 -1.765625q-1.421875 -0.65625 -2.875 -0.65625q-0.46875 0 -0.671875 -0.171875q-0.203125 -0.1875 -0.203125 -0.484375q0 -0.28125 0.1875 -0.46875q0.203125 -0.1875 0.59375 -0.1875l1.125 0.015625q1.765625 0 2.90625 -1.078125q1.15625 -1.078125 1.15625 -2.5q0 -1.46875 -1.203125 -2.59375q-1.203125 -1.125 -3.140625 -1.125q-1.359375 0 -2.5 0.46875q-1.140625 0.46875 -1.828125 1.28125q-0.25 0.3125 -0.390625 0.390625q-0.125 0.0625 -0.296875 0.0625q-0.265625 0 -0.453125 -0.171875q-0.1875 -0.1875 -0.1875 -0.4375q0 -0.625 1.359375 -1.578125q1.890625 -1.328125 4.296875 -1.328125q2.484375 0 4.078125 1.5q1.59375 1.484375 1.59375 3.546875q0 1.3125 -0.765625 2.484375q-0.765625 1.171875 -2.25 1.875z" fill-rule="nonzero"/><path fill="#000000" d="m130.27995 289.46396l-8.703125 0l0 -1.515625l7.296875 -12.609375l2.734375 0l0 12.8125l1.09375 0q0.484375 0 0.6875 0.1875q0.203125 0.171875 0.203125 0.46875q0 0.28125 -0.203125 0.46875q-0.203125 0.1875 -0.6875 0.1875l-1.09375 0l0 4.171875l1.09375 0q0.484375 0 0.6875 0.1875q0.203125 0.171875 0.203125 0.46875q0 0.28125 -0.203125 0.46875q-0.203125 0.1875 -0.6875 0.1875l-4.875 0q-0.484375 0 -0.6875 -0.1875q-0.203125 -0.1875 -0.203125 -0.46875q0 -0.296875 0.203125 -0.46875q0.203125 -0.1875 0.6875 -0.1875l2.453125 0l0 -4.171875zm0 -1.3125l0 -11.484375l-0.6875 0l-6.640625 11.484375l7.328125 0z" fill-rule="nonzero"/><path fill="#000000" d="m124.21745 352.66708l0 6.421875q1.15625 -0.484375 2.21875 -0.71875q1.0625 -0.25 2.015625 -0.25q2.46875 0 4.125 1.734375q1.671875 1.734375 1.671875 4.5625q0 3.125 -1.875 5.0625q-1.875 1.9375 -4.6875 1.9375q-1.859375 0 -3.578125 -0.828125q-1.21875 -0.578125 -2.21875 -1.4375q-0.59375 -0.515625 -0.59375 -0.859375q0 -0.28125 0.1875 -0.46875q0.1875 -0.203125 0.4375 -0.203125q0.265625 0 0.5625 0.28125q2.359375 2.203125 5.140625 2.203125q2.296875 0 3.796875 -1.5625q1.5 -1.578125 1.5 -4.1875q0 -2.21875 -1.296875 -3.5625q-1.296875 -1.359375 -3.296875 -1.359375q-2.046875 0 -4.09375 1.078125q-0.5 0.25 -0.703125 0.25q-0.28125 0 -0.453125 -0.1875q-0.171875 -0.1875 -0.171875 -0.53125l0 -8.703125l9.15625 0q0.46875 0 0.671875 0.1875q0.203125 0.1875 0.203125 0.484375q0 0.28125 -0.203125 0.46875q-0.203125 0.1875 -0.671875 0.1875l-7.84375 0z" fill-rule="nonzero"/><path fill="#000000" d="m123.92058 438.65146q1.21875 -1.796875 2.5 -2.65625q1.296875 -0.859375 2.875 -0.859375q2.09375 0 3.71875 1.75q1.625 1.734375 1.625 4.296875q0 2.34375 -1.484375 4.296875q-1.484375 1.9375 -4.09375 1.9375q-1.703125 0 -3.1875 -1.046875q-1.46875 -1.046875 -2.3125 -3.21875q-1.046875 -2.703125 -1.046875 -5.984375q0 -2.46875 0.984375 -4.59375q0.75 -1.640625 2.0 -2.875q1.25 -1.25 2.90625 -2.03125q1.671875 -0.796875 3.609375 -0.796875q1.3125 0 2.1875 0.53125q0.375 0.234375 0.375 0.625q0 0.28125 -0.171875 0.46875q-0.171875 0.171875 -0.4375 0.171875q-0.203125 0 -0.484375 -0.15625q-0.640625 -0.3125 -1.59375 -0.3125q-3.046875 0 -5.5625 2.625q-2.5 2.609375 -2.5 6.21875q0 0.515625 0.09375 1.609375zm0.296875 2.171875q0.59375 2.84375 1.859375 4.0625q1.28125 1.21875 3.015625 1.21875q1.75 0 2.984375 -1.359375q1.25 -1.375 1.25 -3.5625q0 -2.046875 -1.25 -3.390625q-1.25 -1.34375 -2.828125 -1.34375q-1.515625 0 -2.921875 1.296875q-0.9375 0.859375 -2.109375 3.078125z" fill-rule="nonzero"/><path fill="#000000" d="m132.2487 505.26083l0 -0.59375l-9.40625 0l0 1.15625q0 0.46875 -0.1875 0.671875q-0.171875 0.203125 -0.46875 0.203125q-0.28125 0 -0.46875 -0.203125q-0.1875 -0.203125 -0.1875 -0.671875l0 -2.484375l12.046875 0l0 2.09375l-5.28125 16.87497q-0.125 0.40625 -0.296875 0.546875q-0.171875 0.125 -0.390625 0.125q-0.28125 0 -0.46875 -0.1875q-0.1875 -0.1875 -0.1875 -0.4375q0 -0.15625 0.09375 -0.4375l5.203125 -16.65622z" fill-rule="nonzero"/><path fill="#000000" d="m130.52995 588.7764q1.640625 0.796875 2.46875 2.109375q0.84375 1.296875 0.84375 2.796875q0 2.328125 -1.75 4.03125q-1.75 1.703125 -4.25 1.703125q-2.5 0 -4.25 -1.703125q-1.75 -1.703125 -1.75 -4.03125q0 -1.484375 0.828125 -2.78125q0.84375 -1.3125 2.5 -2.125q-1.4375 -0.828125 -2.09375 -1.71875q-0.90625 -1.265625 -0.90625 -2.796875q0 -2.15625 1.65625 -3.765625q1.671875 -1.625 4.015625 -1.625q2.359375 0 4.015625 1.625q1.65625 1.609375 1.65625 3.765625q0 1.53125 -0.90625 2.78125q-0.640625 0.90625 -2.078125 1.734375zm1.640625 -4.46875q0 -1.6875 -1.265625 -2.890625q-1.25 -1.21875 -3.078125 -1.21875q-1.8125 0 -3.078125 1.21875q-1.25 1.21875 -1.25 2.875q0 1.53125 1.234375 2.6875q1.25 1.140625 3.09375 1.140625q1.859375 0 3.09375 -1.140625q1.25 -1.15625 1.25 -2.671875zm0.359375 9.40625q0 -1.734375 -1.34375 -3.015625q-1.34375 -1.28125 -3.34375 -1.28125q-2.0 0 -3.34375 1.28125q-1.34375 1.28125 -1.34375 3.0q0 1.78125 1.34375 3.09375q1.359375 1.3125 3.34375 1.3125q1.984375 0 3.328125 -1.3125q1.359375 -1.3125 1.359375 -3.078125z" fill-rule="nonzero"/><path fill="#000000" d="m133.21745 663.85455q-1.015625 1.796875 -2.421875 2.703125q-1.390625 0.90625 -2.859375 0.90625q-1.359375 0 -2.640625 -0.78125q-1.265625 -0.78125 -2.015625 -2.28125q-0.75 -1.515625 -0.75 -3.171875q0 -2.40625 1.484375 -4.375q1.5 -1.984375 4.0 -1.984375q1.78125 0 3.25 1.109375q1.46875 1.109375 2.28125 3.21875q1.046875 2.703125 1.046875 6.28125q0 2.78125 -0.890625 4.625q-0.59375 1.25 -1.75 2.421875q-1.140625 1.171875 -2.578125 1.90625q-1.96875 0.984375 -4.09375 0.984375q-1.40625 0 -2.296875 -0.53125q-0.40625 -0.25 -0.40625 -0.625q0 -0.265625 0.1875 -0.4375q0.1875 -0.1875 0.453125 -0.1875q0.1875 0 0.546875 0.171875q0.609375 0.296875 1.40625 0.296875q3.328125 0 5.71875 -2.390625q2.390625 -2.40625 2.390625 -6.015625q0 -0.65625 -0.0625 -1.84375zm-0.25 -2.1875q-0.828125 -3.171875 -2.0625 -4.3125q-1.21875 -1.15625 -2.859375 -1.15625q-1.671875 0 -2.9375 1.40625q-1.265625 1.40625 -1.265625 3.609375q0 2.140625 1.265625 3.546875q1.265625 1.390625 2.859375 1.390625q0.921875 0 1.8125 -0.5q0.90625 -0.5 1.703125 -1.5q0.515625 -0.671875 1.484375 -2.484375z" fill-rule="nonzero"/><path fill="#cccccc" d="m732.17584 12.564304l214.5827 0l0 694.1102l-214.5827 0z" fill-rule="evenodd"/><path stroke="#000000" stroke-width="1.0" stroke-linejoin="round" stroke-linecap="butt" d="m732.17584 12.564304l214.5827 0l0 694.1102l-214.5827 0z" fill-rule="evenodd"/><path fill="#ff0000" d="m841.1 35.605045l0 17.53125l3.234375 0q1.15625 0 1.640625 0.453125q0.5 0.4375 0.5 1.15625q0 0.703125 -0.5 1.15625q-0.484375 0.4375 -1.640625 0.4375l-9.671875 0q-1.15625 0 -1.65625 -0.4375q-0.484375 -0.453125 -0.484375 -1.171875q0 -0.703125 0.484375 -1.140625q0.5 -0.453125 1.65625 -0.453125l3.234375 0l0 -13.359375l-2.859375 0.75q-0.6875 0.1875 -1.03125 0.1875q-0.609375 0 -1.0625 -0.484375q-0.4375 -0.484375 -0.4375 -1.1875q0 -0.640625 0.328125 -1.0q0.328125 -0.375 1.375 -0.65625l6.890625 -1.78125z" fill-rule="nonzero"/><path fill="#ff0000" d="m836.475 129.13629l7.015625 0q0.578125 -0.46875 1.09375 -0.46875q0.734375 0 1.15625 0.484375q0.4375 0.484375 0.4375 1.65625l0 1.53125l-14.59375 0l0 -3.390625q8.65625 -7.1406174 10.453125 -9.187492q0.90625 -1.046875 0.90625 -1.984375q0 -1.171875 -1.03125 -2.0625q-1.015625 -0.90625 -2.71875 -0.90625q-1.71875 0 -2.859375 1.0q-0.59375 0.53125 -0.953125 1.578125q-0.21875 0.65625 -0.609375 0.9375q-0.375 0.28125 -0.9375 0.28125q-0.65625 0 -1.140625 -0.46875q-0.46875 -0.46875 -0.46875 -1.09375q0 -0.9375 0.859375 -2.34375q0.875 -1.40625 2.53125 -2.25q1.671875 -0.84375 3.625 -0.84375q3.03125 0 4.96875 1.84375q1.9375 1.828125 1.9375 4.4375q0 1.328125 -0.5625 2.46875q-0.546875 1.125 -2.65625 3.125q-1.65625 1.578125 -6.453125 5.6562424z" fill-rule="nonzero"/><path fill="#ff0000" d="m844.0375 197.63629q1.421875 0.96875 2.125 2.25q0.703125 1.265625 0.703125 2.84375q0 1.703125 -0.9375 3.15625q-0.921875 1.4375 -2.6875 2.1875q-1.765625 0.734375 -4.625 0.734375q-3.71875 0 -5.59375 -1.15625q-1.046875 -0.65625 -1.046875 -1.5625q0 -0.6875 0.453125 -1.15625q0.46875 -0.484375 1.125 -0.484375q0.453125 0 0.9375 0.3125q0.6875 0.46875 1.296875 0.625q0.9375 0.21875 2.578125 0.21875q2.796875 0 4.046875 -0.71875q1.25 -0.734375 1.25 -2.0625q0 -0.984375 -0.734375 -1.890625q-0.71875 -0.921875 -1.9375 -1.421875q-0.703125 -0.28125 -2.375 -0.390625q-0.796875 -0.046875 -1.234375 -0.484375q-0.421875 -0.453125 -0.421875 -1.109375q0 -0.6875 0.46875 -1.15625q0.46875 -0.46875 1.1875 -0.46875q1.59375 0 1.703125 -0.015625q0.625 -0.0625 1.25 -0.40625q0.625 -0.34375 1.0 -0.9375q0.390625 -0.609375 0.390625 -1.25q0 -1.015625 -0.90625 -1.75q-0.890625 -0.75 -2.6875 -0.75q-2.3125 0 -3.53125 1.34375q-0.359375 0.390625 -0.578125 0.5q-0.328125 0.171875 -0.734375 0.171875q-0.65625 0 -1.125 -0.46875q-0.46875 -0.46875 -0.46875 -1.15625q0 -1.078125 1.4375 -2.09375q2.09375 -1.484375 5.234375 -1.484375q2.96875 0 4.765625 1.6875q1.796875 1.6875 1.796875 4.0625q0 1.234375 -0.53125 2.3125q-0.53125 1.0625 -1.59375 1.96875z" fill-rule="nonzero"/><path fill="#ff00ff" d="m844.1625 264.12067l0 12.53125q1.015625 0 1.5 0.453125q0.484375 0.4375 0.484375 1.140625q0 0.703125 -0.5 1.15625q-0.484375 0.453125 -1.484375 0.453125l0 1.28125q1.015625 0 1.5 0.453125q0.484375 0.453125 0.484375 1.15625q0 0.703125 -0.5 1.15625q-0.484375 0.4375 -1.640625 0.4375l-4.296875 0q-1.15625 0 -1.65625 -0.4375q-0.484375 -0.453125 -0.484375 -1.171875q0 -0.703125 0.484375 -1.140625q0.5 -0.453125 1.65625 -0.453125l1.25 0l0 -1.28125l-8.703125 0l0 -2.671875l7.671875 -13.0625l4.234375 0zm-3.203125 12.53125l0 -7.875l-4.640625 7.875l4.640625 0z" fill-rule="nonzero"/><path fill="#ff00ff" d="m836.77185 343.3238l0 3.8125q1.78125 -0.5625 3.234375 -0.5625q2.953125 0 4.90625 2.015625q1.953125 2.015625 1.953125 5.203125q0 3.28125 -1.984375 5.15625q-1.96875 1.859375 -6.046875 1.859375q-3.59375 0 -5.6875 -1.359375q-1.21875 -0.78125 -1.21875 -1.796875q0 -0.640625 0.46875 -1.109375q0.484375 -0.484375 1.140625 -0.484375q0.546875 0 1.1875 0.53125q0.640625 0.515625 1.34375 0.71875q1.0 0.296875 2.5625 0.296875q2.90625 0 3.96875 -0.921875q1.0625 -0.9375 1.0625 -2.859375q0 -1.890625 -1.03125 -2.96875q-1.015625 -1.078125 -2.625 -1.078125q-1.734375 0 -3.953125 1.125q-0.5 0.265625 -0.875 0.265625q-0.6875 0 -1.15625 -0.5q-0.453125 -0.5 -0.453125 -1.296875l0 -9.25l9.796875 0q1.15625 0 1.640625 0.453125q0.5 0.4375 0.5 1.15625q0 0.703125 -0.5 1.15625q-0.484375 0.4375 -1.640625 0.4375l-6.59375 0z" fill-rule="nonzero"/><path fill="#ff00ff" d="m836.45935 425.40192q1.15625 -0.96875 2.203125 -1.40625q1.046875 -0.453125 2.234375 -0.453125q2.515625 0 4.40625 2.0q1.890625 2.0 1.890625 5.015625q0 2.796875 -1.765625 4.53125q-1.75 1.71875 -4.765625 1.71875q-2.515625 0 -4.140625 -1.171875q-1.625 -1.171875 -2.453125 -3.609375q-0.828125 -2.4375 -0.828125 -5.4375q0 -3.59375 1.640625 -5.96875q1.640625 -2.390625 3.859375 -3.703125q2.21875 -1.3125 4.6875 -1.3125q1.953125 0 3.03125 0.765625q0.703125 0.515625 0.703125 1.3125q0 0.703125 -0.46875 1.1875q-0.46875 0.46875 -1.125 0.46875q-0.375 0 -1.078125 -0.375q-0.421875 -0.21875 -0.8125 -0.21875q-1.53125 0 -3.171875 0.875q-1.640625 0.859375 -2.84375 2.65625q-0.828125 1.25 -1.203125 3.125zm0.46875 4.953125q0.5 1.875 1.34375 2.5625q0.859375 0.6875 2.4375 0.6875q1.578125 0 2.421875 -0.828125q0.859375 -0.828125 0.859375 -2.25q0 -1.625 -0.984375 -2.703125q-0.96875 -1.078125 -2.1875 -1.078125q-0.96875 0 -2.078125 0.953125q-1.09375 0.953125 -1.8125 2.65625z" fill-rule="nonzero"/><path fill="#00ffff" d="m842.77185 495.3238l-7.328125 0q-0.0625 0.9375 -0.484375 1.359375q-0.421875 0.40625 -1.109375 0.40625q-0.71875 0 -1.171875 -0.484375q-0.4375 -0.484375 -0.4375 -1.640625l0 -2.84375l13.90625 0l0 3.203125l-5.1875 15.4375q-0.328125 0.96875 -0.734375 1.296875q-0.390625 0.3125 -0.953125 0.3125q-0.671875 0 -1.15625 -0.46875q-0.46875 -0.46875 -0.46875 -1.078125q0 -0.34375 0.25 -1.09375l4.875 -14.40625z" fill-rule="nonzero"/><path fill="#00ffff" d="m844.0062 578.10504q1.234375 0.953125 1.84375 2.171875q0.625 1.203125 0.625 2.65625q0 1.609375 -0.796875 2.96875q-0.78125 1.34375 -2.46875 2.125q-1.6875 0.78125 -3.75 0.78125q-2.0625 0 -3.71875 -0.78125q-1.65625 -0.78125 -2.453125 -2.140625q-0.78125 -1.359375 -0.78125 -2.953125q0 -1.453125 0.609375 -2.65625q0.625 -1.21875 1.859375 -2.171875q-1.078125 -1.0 -1.625 -2.125q-0.546875 -1.125 -0.546875 -2.375q0 -2.453125 1.875 -4.21875q1.875 -1.78125 4.8125 -1.78125q2.9375 0 4.8125 1.78125q1.875 1.765625 1.875 4.21875q0 1.265625 -0.546875 2.390625q-0.53125 1.125 -1.625 2.109375zm-1.109375 -4.4375q0 -1.1875 -0.9375 -2.015625q-0.921875 -0.84375 -2.5 -0.84375q-1.59375 0 -2.53125 0.84375q-0.921875 0.828125 -0.921875 2.015625q0 1.203125 0.921875 2.046875q0.9375 0.828125 2.53125 0.828125q1.578125 0 2.5 -0.828125q0.9375 -0.84375 0.9375 -2.046875zm0.375 9.421875q0 -1.265625 -1.09375 -2.28125q-1.078125 -1.03125 -2.6875 -1.03125q-1.609375 0 -2.703125 1.03125q-1.078125 1.015625 -1.078125 2.3125q0 1.0 0.9375 1.75q0.9375 0.734375 2.84375 0.734375q1.921875 0 2.84375 -0.734375q0.9375 -0.75 0.9375 -1.78125z" fill-rule="nonzero"/><path fill="#00ffff" d="m843.975 655.93317q-1.203125 1.03125 -2.203125 1.46875q-1.0 0.421875 -2.109375 0.421875q-2.578125 0 -4.515625 -2.0625q-1.921875 -2.0625 -1.921875 -5.125q0 -2.390625 1.328125 -4.34375q1.8125 -2.6875 5.109375 -2.6875q2.359375 0 4.125 1.421875q1.765625 1.40625 2.59375 4.078125q0.828125 2.65625 0.828125 5.546875q0 4.90625 -3.796875 7.875q-2.9375 2.28125 -6.4375 2.28125q-1.9375 0 -3.0 -0.78125q-0.71875 -0.515625 -0.71875 -1.359375q0 -0.6875 0.453125 -1.140625q0.46875 -0.46875 1.140625 -0.46875q0.375 0 0.84375 0.234375q0.609375 0.3125 1.28125 0.3125q2.421875 0 4.46875 -1.640625q2.046875 -1.65625 2.53125 -4.03125zm-0.453125 -5.046875q-0.515625 -2.21875 -1.53125 -3.140625q-1.0 -0.9375 -2.296875 -0.9375q-1.359375 0 -2.3125 1.046875q-0.953125 1.03125 -0.953125 2.75q0 1.796875 0.953125 2.90625q0.96875 1.109375 2.203125 1.109375q2.171875 0 3.9375 -3.734375z" fill-rule="nonzero"/><path fill="#000000" fill-opacity="0.0" d="m144.72614 49.46194l224.40945 -10.645668" fill-rule="evenodd"/><path stroke="#38761d" stroke-width="3.0" stroke-linejoin="round" stroke-linecap="butt" d="m144.72614 49.46194l206.42966 -9.792732" fill-rule="evenodd"/><path fill="#38761d" stroke="#38761d" stroke-width="3.0" stroke-linecap="butt" d="m351.3906 44.61884l13.364197 -5.5947495l-13.833801 -4.304512z" fill-rule="evenodd"/><path fill="#000000" fill-opacity="0.0" d="m143.63672 133.1811l225.48032 -85.22835" fill-rule="evenodd"/><path stroke="#38761d" stroke-width="3.0" stroke-linejoin="round" stroke-linecap="butt" d="m143.63672 133.1811l208.64297 -78.864075" fill-rule="evenodd"/><path fill="#38761d" stroke="#38761d" stroke-width="3.0" stroke-linecap="butt" d="m354.0317 58.95216l10.98291 -9.448746l-14.486938 0.17848587z" fill-rule="evenodd"/><path fill="#000000" fill-opacity="0.0" d="m144.72614 209.29134l224.40945 -150.70866" fill-rule="evenodd"/><path stroke="#38761d" stroke-width="3.0" stroke-linejoin="round" stroke-linecap="butt" d="m144.72614 209.29134l209.46649 -140.6733" fill-rule="evenodd"/><path fill="#38761d" stroke="#38761d" stroke-width="3.0" stroke-linecap="butt" d="m356.95526 72.73167l8.539459 -11.703869l-14.064697 3.4766197z" fill-rule="evenodd"/><path fill="#000000" fill-opacity="0.0" d="m29.256672 22.060368l198.26772 0l0 217.6693l-198.26772 0z" fill-rule="evenodd"/><path stroke="#00ff00" stroke-width="3.0" stroke-linejoin="round" stroke-linecap="butt" d="m29.256672 22.060368l198.26772 0l0 217.6693l-198.26772 0z" fill-rule="evenodd"/><path fill="#000000" fill-opacity="0.0" d="m29.256672 477.97638l198.26772 0l0 217.66931l-198.26772 0z" fill-rule="evenodd"/><path stroke="#ff9900" stroke-width="3.0" stroke-linejoin="round" stroke-linecap="butt" d="m29.256672 477.97638l198.26772 0l0 217.66931l-198.26772 0z" fill-rule="evenodd"/><path fill="#000000" fill-opacity="0.0" d="m29.256672 253.43045l198.26772 0l0 210.83466l-198.26772 0z" fill-rule="evenodd"/><path stroke="#0000ff" stroke-width="3.0" stroke-linejoin="round" stroke-linecap="butt" d="m29.256672 253.43045l198.26772 0l0 210.83466l-198.26772 0z" fill-rule="evenodd"/><path fill="#000000" fill-opacity="0.0" d="m146.90494 286.9239l220.06299 -19.779541" fill-rule="evenodd"/><path stroke="#0000ff" stroke-width="3.0" stroke-linejoin="round" stroke-linecap="butt" d="m146.90494 286.9239l202.13525 -18.168182" fill-rule="evenodd"/><path fill="#0000ff" stroke="#0000ff" stroke-width="3.0" stroke-linecap="butt" d="m349.4838 273.69104l13.116028 -6.1540833l-14.003204 -3.7165222z" fill-rule="evenodd"/><path fill="#000000" fill-opacity="0.0" d="m147.99434 364.55643l217.85826 -86.77164" fill-rule="evenodd"/><path stroke="#0000ff" stroke-width="3.0" stroke-linejoin="round" stroke-linecap="butt" d="m147.99434 364.55643l201.13588 -80.111206" fill-rule="evenodd"/><path fill="#0000ff" stroke="#0000ff" stroke-width="3.0" stroke-linecap="butt" d="m350.96375 289.0487l10.814453 -9.641113l-14.481537 0.43414307z" fill-rule="evenodd"/><path fill="#000000" fill-opacity="0.0" d="m151.26256 440.66666l214.58269 -149.16534" fill-rule="evenodd"/><path stroke="#0000ff" stroke-width="3.0" stroke-linejoin="round" stroke-linecap="butt" d="m151.26256 440.66666l199.80284 -138.89127" fill-rule="evenodd"/><path fill="#0000ff" stroke="#0000ff" stroke-width="3.0" stroke-linecap="butt" d="m353.89374 305.84412l8.350372 -11.839508l-14.00705 3.702057z" fill-rule="evenodd"/><path fill="#000000" fill-opacity="0.0" d="m145.81554 512.20996l218.96062 -16.75589" fill-rule="evenodd"/><path stroke="#ff9900" stroke-width="3.0" stroke-linejoin="round" stroke-linecap="butt" d="m145.81554 512.20996l201.0131 -15.382446" fill-rule="evenodd"/><path fill="#ff9900" stroke="#ff9900" stroke-width="3.0" stroke-linecap="butt" d="m347.20673 501.76825l13.196503 -5.979553l-13.952667 -3.901947z" fill-rule="evenodd"/><path fill="#000000" fill-opacity="0.0" d="m142.54732 594.4068l221.13387 -86.77164" fill-rule="evenodd"/><path stroke="#ff9900" stroke-width="3.0" stroke-linejoin="round" stroke-linecap="butt" d="m142.54732 594.4068l204.3777 -80.196594" fill-rule="evenodd"/><path fill="#ff9900" stroke="#ff9900" stroke-width="3.0" stroke-linecap="butt" d="m348.73505 518.823l10.863495 -9.585815l-14.483551 0.3602295z" fill-rule="evenodd"/><path fill="#000000" fill-opacity="0.0" d="m141.45792 667.4724l226.58267 -152.22046" fill-rule="evenodd"/><path stroke="#ff9900" stroke-width="3.0" stroke-linejoin="round" stroke-linecap="butt" d="m141.45792 667.4724l211.64133 -142.18274" fill-rule="evenodd"/><path fill="#ff9900" stroke="#ff9900" stroke-width="3.0" stroke-linecap="butt" d="m355.86255 529.4029l8.537598 -11.7052l-14.064178 3.4788208z" fill-rule="evenodd"/><path fill="#cccccc" d="m466.58398 11.792651l116.72443 0l0 694.1102l-116.72443 0z" fill-rule="evenodd"/><path stroke="#000000" stroke-width="1.0" stroke-linejoin="round" stroke-linecap="butt" d="m466.58398 11.792651l116.72443 0l0 694.1102l-116.72443 0z" fill-rule="evenodd"/><path fill="#00ff00" d="m526.579 34.833393l0 17.53125l3.234375 0q1.15625 0 1.640625 0.453125q0.5 0.4375 0.5 1.15625q0 0.703125 -0.5 1.15625q-0.484375 0.4375 -1.640625 0.4375l-9.671875 0q-1.15625 0 -1.65625 -0.4375q-0.484375 -0.453125 -0.484375 -1.171875q0 -0.703125 0.484375 -1.140625q0.5 -0.453125 1.65625 -0.453125l3.234375 0l0 -13.359375l-2.859375 0.75q-0.6875 0.1875 -1.03125 0.1875q-0.609375 0 -1.0625 -0.484375q-0.4375 -0.484375 -0.4375 -1.1875q0 -0.640625 0.328125 -1.0q0.328125 -0.375 1.375 -0.65625l6.890625 -1.78125z" fill-rule="nonzero"/><path fill="#0000ff" d="m529.6415 111.349014l0 12.53125q1.015625 0 1.5 0.453125q0.484375 0.4375 0.484375 1.140625q0 0.703125 -0.5 1.15625q-0.484375 0.453125 -1.484375 0.453125l0 1.28125q1.015625 0 1.5 0.453125q0.484375 0.453125 0.484375 1.15625q0 0.703125 -0.5 1.15625q-0.484375 0.4375 -1.640625 0.4375l-4.296875 0q-1.15625 0 -1.65625 -0.4375q-0.484375 -0.453125 -0.484375 -1.171875q0 -0.703125 0.484375 -1.140625q0.5 -0.453125 1.65625 -0.453125l1.25 0l0 -1.28125l-8.703125 0l0 -2.671875l7.671875 -13.0625l4.234375 0zm-3.203125 12.53125l0 -7.875l-4.640625 7.875l4.640625 0z" fill-rule="nonzero"/><path fill="#ff9900" d="m528.25085 190.55214l-7.328125 0q-0.0625 0.9375 -0.484375 1.359375q-0.421875 0.40625 -1.109375 0.40625q-0.71875 0 -1.171875 -0.484375q-0.4375 -0.484375 -0.4375 -1.640625l0 -2.84375l13.90625 0l0 3.203125l-5.1875 15.4375q-0.328125 0.96875 -0.734375 1.296875q-0.390625 0.3125 -0.953125 0.3125q-0.671875 0 -1.15625 -0.46875q-0.46875 -0.46875 -0.46875 -1.078125q0 -0.34375 0.25 -1.09375l4.875 -14.40625z" fill-rule="nonzero"/><path fill="#00ff00" d="m521.954 280.36465l7.015625 0q0.578125 -0.46875 1.09375 -0.46875q0.734375 0 1.15625 0.484375q0.4375 0.484375 0.4375 1.65625l0 1.53125l-14.59375 0l0 -3.390625q8.65625 -7.140625 10.453125 -9.1875q0.90625 -1.046875 0.90625 -1.984375q0 -1.171875 -1.03125 -2.0625q-1.015625 -0.90625 -2.71875 -0.90625q-1.71875 0 -2.859375 1.0q-0.59375 0.53125 -0.953125 1.578125q-0.21875 0.65625 -0.609375 0.9375q-0.375 0.28125 -0.9375 0.28125q-0.65625 0 -1.140625 -0.46875q-0.46875 -0.46875 -0.46875 -1.09375q0 -0.9375 0.859375 -2.34375q0.875 -1.40625 2.53125 -2.25q1.671875 -0.84375 3.625 -0.84375q3.03125 0 4.96875 1.84375q1.9375 1.828125 1.9375 4.4375q0 1.328125 -0.5625 2.46875q-0.546875 1.125 -2.65625 3.125q-1.65625 1.578125 -6.453125 5.65625z" fill-rule="nonzero"/><path fill="#0000ff" d="m522.25085 342.55215l0 3.8125q1.78125 -0.5625 3.234375 -0.5625q2.953125 0 4.90625 2.015625q1.953125 2.015625 1.953125 5.203125q0 3.28125 -1.984375 5.15625q-1.96875 1.859375 -6.046875 1.859375q-3.59375 0 -5.6875 -1.359375q-1.21875 -0.78125 -1.21875 -1.796875q0 -0.640625 0.46875 -1.109375q0.484375 -0.484375 1.140625 -0.484375q0.546875 0 1.1875 0.53125q0.640625 0.515625 1.34375 0.71875q1.0 0.296875 2.5625 0.296875q2.90625 0 3.96875 -0.921875q1.0625 -0.9375 1.0625 -2.859375q0 -1.890625 -1.03125 -2.96875q-1.015625 -1.078125 -2.625 -1.078125q-1.734375 0 -3.953125 1.125q-0.5 0.265625 -0.875 0.265625q-0.6875 0 -1.15625 -0.5q-0.453125 -0.5 -0.453125 -1.296875l0 -9.25l9.796875 0q1.15625 0 1.640625 0.453125q0.5 0.4375 0.5 1.15625q0 0.703125 -0.5 1.15625q-0.484375 0.4375 -1.640625 0.4375l-6.59375 0z" fill-rule="nonzero"/><path fill="#ff9900" d="m529.4852 425.3334q1.234375 0.953125 1.84375 2.171875q0.625 1.203125 0.625 2.65625q0 1.609375 -0.796875 2.96875q-0.78125 1.34375 -2.46875 2.125q-1.6875 0.78125 -3.75 0.78125q-2.0625 0 -3.71875 -0.78125q-1.65625 -0.78125 -2.453125 -2.140625q-0.78125 -1.359375 -0.78125 -2.953125q0 -1.453125 0.609375 -2.65625q0.625 -1.21875 1.859375 -2.171875q-1.078125 -1.0 -1.625 -2.125q-0.546875 -1.125 -0.546875 -2.375q0 -2.453125 1.875 -4.21875q1.875 -1.78125 4.8125 -1.78125q2.9375 0 4.8125 1.78125q1.875 1.765625 1.875 4.21875q0 1.265625 -0.546875 2.390625q-0.53125 1.125 -1.625 2.109375zm-1.109375 -4.4375q0 -1.1875 -0.9375 -2.015625q-0.921875 -0.84375 -2.5 -0.84375q-1.59375 0 -2.53125 0.84375q-0.921875 0.828125 -0.921875 2.015625q0 1.203125 0.921875 2.046875q0.9375 0.828125 2.53125 0.828125q1.578125 0 2.5 -0.828125q0.9375 -0.84375 0.9375 -2.046875zm0.375 9.421875q0 -1.265625 -1.09375 -2.28125q-1.078125 -1.03125 -2.6875 -1.03125q-1.609375 0 -2.703125 1.03125q-1.078125 1.015625 -1.078125 2.3125q0 1.0 0.9375 1.75q0.9375 0.734375 2.84375 0.734375q1.921875 0 2.84375 -0.734375q0.9375 -0.75 0.9375 -1.78125z" fill-rule="nonzero"/><path fill="#00ff00" d="m529.5165 500.86465q1.421875 0.96875 2.125 2.25q0.703125 1.265625 0.703125 2.84375q0 1.703125 -0.9375 3.15625q-0.921875 1.4375 -2.6875 2.1875q-1.765625 0.7343445 -4.625 0.7343445q-3.71875 0 -5.59375 -1.1562195q-1.046875 -0.65625 -1.046875 -1.5625q0 -0.6875 0.453125 -1.15625q0.46875 -0.484375 1.125 -0.484375q0.453125 0 0.9375 0.3125q0.6875 0.46875 1.296875 0.625q0.9375 0.21875 2.578125 0.21875q2.796875 0 4.046875 -0.71875q1.25 -0.734375 1.25 -2.0625q0 -0.984375 -0.734375 -1.890625q-0.71875 -0.921875 -1.9375 -1.421875q-0.703125 -0.28125 -2.375 -0.390625q-0.796875 -0.046875 -1.234375 -0.484375q-0.421875 -0.453125 -0.421875 -1.109375q0 -0.6875 0.46875 -1.15625q0.46875 -0.46875 1.1875 -0.46875q1.59375 0 1.703125 -0.015625q0.625 -0.0625 1.25 -0.40625q0.625 -0.34375 1.0 -0.9375q0.390625 -0.609375 0.390625 -1.25q0 -1.015625 -0.90625 -1.75q-0.890625 -0.75 -2.6875 -0.75q-2.3125 0 -3.53125 1.34375q-0.359375 0.390625 -0.578125 0.5q-0.328125 0.171875 -0.734375 0.171875q-0.65625 0 -1.125 -0.46875q-0.46875 -0.46875 -0.46875 -1.15625q0 -1.078125 1.4375 -2.09375q2.09375 -1.484375 5.234375 -1.484375q2.96875 0 4.765625 1.6875q1.796875 1.6875 1.796875 4.0625q0 1.234375 -0.53125 2.3125q-0.53125 1.0625 -1.59375 1.96875z" fill-rule="nonzero"/><path fill="#0000ff" d="m521.93835 576.63025q1.15625 -0.96875 2.203125 -1.40625q1.046875 -0.453125 2.234375 -0.453125q2.515625 0 4.40625 2.0q1.890625 2.0 1.890625 5.015625q0 2.796875 -1.765625 4.53125q-1.75 1.71875 -4.765625 1.71875q-2.515625 0 -4.140625 -1.171875q-1.625 -1.171875 -2.453125 -3.609375q-0.828125 -2.4375 -0.828125 -5.4375q0 -3.59375 1.640625 -5.96875q1.640625 -2.390625 3.859375 -3.703125q2.21875 -1.3125 4.6875 -1.3125q1.953125 0 3.03125 0.765625q0.703125 0.515625 0.703125 1.3125q0 0.703125 -0.46875 1.1875q-0.46875 0.46875 -1.125 0.46875q-0.375 0 -1.078125 -0.375q-0.421875 -0.21875 -0.8125 -0.21875q-1.53125 0 -3.171875 0.875q-1.640625 0.859375 -2.84375 2.65625q-0.828125 1.25 -1.203125 3.125zm0.46875 4.953125q0.5 1.875 1.34375 2.5625q0.859375 0.6875 2.4375 0.6875q1.578125 0 2.421875 -0.828125q0.859375 -0.828125 0.859375 -2.25q0 -1.625 -0.984375 -2.703125q-0.96875 -1.078125 -2.1875 -1.078125q-0.96875 0 -2.078125 0.953125q-1.09375 0.953125 -1.8125 2.65625z" fill-rule="nonzero"/><path fill="#ff9900" d="m529.454 655.1615q-1.203125 1.03125 -2.203125 1.46875q-1.0 0.421875 -2.109375 0.421875q-2.578125 0 -4.515625 -2.0625q-1.921875 -2.0625 -1.921875 -5.125q0 -2.390625 1.328125 -4.34375q1.8125 -2.6875 5.109375 -2.6875q2.359375 0 4.125 1.421875q1.765625 1.40625 2.59375 4.078125q0.828125 2.65625 0.828125 5.546875q0 4.90625 -3.796875 7.875q-2.9375 2.28125 -6.4375 2.28125q-1.9375 0 -3.0 -0.78125q-0.71875 -0.515625 -0.71875 -1.359375q0 -0.6875 0.453125 -1.140625q0.46875 -0.46875 1.140625 -0.46875q0.375 0 0.84375 0.234375q0.609375 0.3125 1.28125 0.3125q2.421875 0 4.46875 -1.640625q2.046875 -1.65625 2.53125 -4.03125zm-0.453125 -5.046875q-0.515625 -2.21875 -1.53125 -3.140625q-1.0 -0.9375 -2.296875 -0.9375q-1.359375 0 -2.3125 1.046875q-0.953125 1.03125 -0.953125 2.75q0 1.796875 0.953125 2.90625q0.96875 1.109375 2.203125 1.109375q2.171875 0 3.9375 -3.734375z" fill-rule="nonzero"/><path fill="#000000" fill-opacity="0.0" d="m406.42783 45.666668l92.8504 0" fill-rule="evenodd"/><path stroke="#38761d" stroke-width="3.0" stroke-linejoin="round" stroke-linecap="butt" d="m406.42783 45.666668l74.8504 0" fill-rule="evenodd"/><path fill="#38761d" stroke="#38761d" stroke-width="3.0" stroke-linecap="butt" d="m481.27823 50.621864l13.614288 -4.9551964l-13.614288 -4.9552z" fill-rule="evenodd"/><path fill="#000000" fill-opacity="0.0" d="m414.03674 124.821526l89.82678 137.00787" fill-rule="evenodd"/><path stroke="#38761d" stroke-width="3.0" stroke-linejoin="round" stroke-linecap="butt" d="m414.03674 124.821526l79.95749 121.954735" fill-rule="evenodd"/><path fill="#38761d" stroke="#38761d" stroke-width="3.0" stroke-linecap="butt" d="m489.85025 249.49318l11.608612 8.668503l-3.3207092 -14.102325z" fill-rule="evenodd"/><path fill="#000000" fill-opacity="0.0" d="m414.03674 213.1076l89.82678 275.52756" fill-rule="evenodd"/><path stroke="#38761d" stroke-width="3.0" stroke-linejoin="round" stroke-linecap="butt" d="m414.03674 213.1076l84.24747 258.4141" fill-rule="evenodd"/><path fill="#38761d" stroke="#38761d" stroke-width="3.0" stroke-linecap="butt" d="m493.57306 473.0576l8.931061 11.407867l0.49124146 -14.479675z" fill-rule="evenodd"/><path fill="#000000" fill-opacity="0.0" d="m412.51706 275.51706l89.79529 -149.16534" fill-rule="evenodd"/><path stroke="#0000ff" stroke-width="3.0" stroke-linejoin="round" stroke-linecap="butt" d="m412.51706 275.51706l80.51184 -133.744" fill-rule="evenodd"/><path fill="#0000ff" stroke="#0000ff" stroke-width="3.0" stroke-linecap="butt" d="m497.27423 144.32867l2.776184 -14.219543l-11.266815 9.108307z" fill-rule="evenodd"/><path fill="#000000" fill-opacity="0.0" d="m415.55905 500.80316l88.28348 -298.3622" fill-rule="evenodd"/><path stroke="#ff9900" stroke-width="3.0" stroke-linejoin="round" stroke-linecap="butt" d="m415.55905 500.80316l83.17627 -281.10196" fill-rule="evenodd"/><path fill="#ff9900" stroke="#ff9900" stroke-width="3.0" stroke-linecap="butt" d="m503.48688 221.10716l-0.8887329 -14.460754l-8.61438 11.648834z" fill-rule="evenodd"/><path fill="#000000" fill-opacity="0.0" d="m415.55905 356.1942l82.20474 -3.0551147" fill-rule="evenodd"/><path stroke="#0000ff" stroke-width="3.0" stroke-linejoin="round" stroke-linecap="butt" d="m415.55905 356.1942l64.21716 -2.3865967" fill-rule="evenodd"/><path fill="#0000ff" stroke="#0000ff" stroke-width="3.0" stroke-linecap="butt" d="m479.96024 358.7594l13.420868 -5.4573975l-13.78894 -4.446167z" fill-rule="evenodd"/><path fill="#000000" fill-opacity="0.0" d="m415.55905 429.25986l89.82678 144.59842" fill-rule="evenodd"/><path stroke="#0000ff" stroke-width="3.0" stroke-linejoin="round" stroke-linecap="butt" d="m415.55905 429.25986l80.32846 129.3085" fill-rule="evenodd"/><path fill="#0000ff" stroke="#0000ff" stroke-width="3.0" stroke-linecap="butt" d="m491.67834 561.1831l11.393219 8.949768l-2.9749146 -14.179321z" fill-rule="evenodd"/><path fill="#000000" fill-opacity="0.0" d="m421.6483 656.06824l82.20474 0" fill-rule="evenodd"/><path stroke="#ff9900" stroke-width="3.0" stroke-linejoin="round" stroke-linecap="butt" d="m421.6483 656.06824l64.20474 0" fill-rule="evenodd"/><path fill="#ff9900" stroke="#ff9900" stroke-width="3.0" stroke-linecap="butt" d="m485.85303 661.02344l13.614288 -4.9552l-13.614288 -4.9552z" fill-rule="evenodd"/><path fill="#000000" fill-opacity="0.0" d="m414.03674 576.9134l97.44882 -140.06299" fill-rule="evenodd"/><path stroke="#ff9900" stroke-width="3.0" stroke-linejoin="round" stroke-linecap="butt" d="m414.03674 576.9134l87.16867 -125.28735" fill-rule="evenodd"/><path fill="#ff9900" stroke="#ff9900" stroke-width="3.0" stroke-linecap="butt" d="m505.27298 454.45602l3.7078247 -14.005554l-11.842926 8.34552z" fill-rule="evenodd"/><path fill="#000000" fill-opacity="0.0" d="m345.987 22.060368l92.8504 0l0 217.6693l-92.8504 0z" fill-rule="evenodd"/><path stroke="#00ff00" stroke-width="3.0" stroke-linejoin="round" stroke-linecap="butt" d="m345.987 22.060368l92.8504 0l0 217.6693l-92.8504 0z" fill-rule="evenodd"/><path fill="#000000" fill-opacity="0.0" d="m342.83472 253.4357l97.44882 0l0 210.83466l-97.44882 0z" fill-rule="evenodd"/><path stroke="#0000ff" stroke-width="3.0" stroke-linejoin="round" stroke-linecap="butt" d="m342.83472 253.4357l97.44882 0l0 210.83466l-97.44882 0z" fill-rule="evenodd"/><path fill="#000000" fill-opacity="0.0" d="m342.0732 477.97638l97.44882 0l0 217.66931l-97.44882 0z" fill-rule="evenodd"/><path stroke="#ff9900" stroke-width="3.0" stroke-linejoin="round" stroke-linecap="butt" d="m342.0732 477.97638l97.44882 0l0 217.66931l-97.44882 0z" fill-rule="evenodd"/><path fill="#000000" fill-opacity="0.0" d="m472.99448 25.102362l103.90555 0l0 217.6693l-103.90555 0z" fill-rule="evenodd"/><path stroke="#ff0000" stroke-width="3.0" stroke-linejoin="round" stroke-linecap="butt" d="m472.99448 25.102362l103.90555 0l0 217.6693l-103.90555 0z" fill-rule="evenodd"/><path fill="#000000" fill-opacity="0.0" d="m472.99448 482.52756l103.90555 0l0 217.66928l-103.90555 0z" fill-rule="evenodd"/><path stroke="#00ffff" stroke-width="3.0" stroke-linejoin="round" stroke-linecap="butt" d="m472.99448 482.52756l103.90555 0l0 217.66928l-103.90555 0z" fill-rule="evenodd"/><path fill="#000000" fill-opacity="0.0" d="m472.99448 253.81496l103.90555 0l0 217.6693l-103.90555 0z" fill-rule="evenodd"/><path stroke="#ff00ff" stroke-width="3.0" stroke-linejoin="round" stroke-linecap="butt" d="m472.99448 253.81496l103.90555 0l0 217.6693l-103.90555 0z" fill-rule="evenodd"/><path fill="#000000" fill-opacity="0.0" d="m555.91864 46.422573l246.5827 -1.5118103" fill-rule="evenodd"/><path stroke="#ff0000" stroke-width="3.0" stroke-linejoin="round" stroke-linecap="butt" d="m555.91864 46.422573l228.58301 -1.4014511" fill-rule="evenodd"/><path fill="#ff0000" stroke="#ff0000" stroke-width="3.0" stroke-linecap="butt" d="m784.53204 49.976223l13.583618 -5.038574l-13.644409 -4.8716354z" fill-rule="evenodd"/><path fill="#000000" fill-opacity="0.0" d="m548.3173 126.33071l258.45673 -65.44882" fill-rule="evenodd"/><path stroke="#ff0000" stroke-width="3.0" stroke-linejoin="round" stroke-linecap="butt" d="m548.3173 126.33071l241.0075 -61.030167" fill-rule="evenodd"/><path fill="#ff0000" stroke="#ff0000" stroke-width="3.0" stroke-linecap="butt" d="m790.5412 70.10412l11.981323 -8.145622l-14.414124 -1.461525z" fill-rule="evenodd"/><path fill="#000000" fill-opacity="0.0" d="m557.126 207.01837l255.71655 -129.38583" fill-rule="evenodd"/><path stroke="#ff0000" stroke-width="3.0" stroke-linejoin="round" stroke-linecap="butt" d="m557.126 207.01837l239.65546 -121.259315" fill-rule="evenodd"/><path fill="#ff0000" stroke="#ff0000" stroke-width="3.0" stroke-linecap="butt" d="m799.01855 90.180504l9.910645 -10.567932l-14.384949 1.7250366z" fill-rule="evenodd"/><path fill="#000000" fill-opacity="0.0" d="m554.08136 273.99475l254.20471 0" fill-rule="evenodd"/><path stroke="#ff00ff" stroke-width="3.0" stroke-linejoin="round" stroke-linecap="butt" d="m554.08136 273.99475l236.20471 0" fill-rule="evenodd"/><path fill="#ff00ff" stroke="#ff00ff" stroke-width="3.0" stroke-linecap="butt" d="m790.2861 278.94995l13.614319 -4.9552l-13.614319 -4.9552z" fill-rule="evenodd"/><path fill="#000000" fill-opacity="0.0" d="m547.9921 351.6273l261.82678 -62.393707" fill-rule="evenodd"/><path stroke="#ff00ff" stroke-width="3.0" stroke-linejoin="round" stroke-linecap="butt" d="m547.9921 351.6273l244.31708 -58.2211" fill-rule="evenodd"/><path fill="#ff00ff" stroke="#ff00ff" stroke-width="3.0" stroke-linecap="butt" d="m793.4579 298.2264l12.094788 -7.976166l-14.392151 -1.6642761z" fill-rule="evenodd"/><path fill="#000000" fill-opacity="0.0" d="m544.9475 435.3491l263.33856 -132.44095" fill-rule="evenodd"/><path stroke="#ff00ff" stroke-width="3.0" stroke-linejoin="round" stroke-linecap="butt" d="m544.9475 435.3491l247.25781 -124.353424" fill-rule="evenodd"/><path fill="#ff00ff" stroke="#ff00ff" stroke-width="3.0" stroke-linecap="butt" d="m794.4317 315.42252l9.936279 -10.543854l-14.389099 1.6901245z" fill-rule="evenodd"/><path fill="#000000" fill-opacity="0.0" d="m555.6037 511.45932l245.07086 -3.0551147" fill-rule="evenodd"/><path stroke="#00ffff" stroke-width="3.0" stroke-linejoin="round" stroke-linecap="butt" d="m555.6037 511.45932l227.07227 -2.8307495" fill-rule="evenodd"/><path fill="#00ffff" stroke="#00ffff" stroke-width="3.0" stroke-linecap="butt" d="m782.73773 513.5834l13.551453 -5.1245117l-13.674988 -4.785095z" fill-rule="evenodd"/><path fill="#000000" fill-opacity="0.0" d="m546.4698 579.958l254.20477 -54.80316" fill-rule="evenodd"/><path stroke="#00ffff" stroke-width="3.0" stroke-linejoin="round" stroke-linecap="butt" d="m546.4698 579.958l236.60901 -51.009766" fill-rule="evenodd"/><path fill="#00ffff" stroke="#00ffff" stroke-width="3.0" stroke-linecap="butt" d="m784.1231 533.7922l12.264221 -7.7130737l-14.352783 -1.9747314z" fill-rule="evenodd"/><path fill="#000000" fill-opacity="0.0" d="m537.33856 663.6798l261.82678 -124.81891" fill-rule="evenodd"/><path stroke="#00ffff" stroke-width="3.0" stroke-linejoin="round" stroke-linecap="butt" d="m537.33856 663.6798l245.57867 -117.07306" fill-rule="evenodd"/><path fill="#00ffff" stroke="#00ffff" stroke-width="3.0" stroke-linecap="butt" d="m785.04956 551.07965l10.156921 -10.331482l-14.421631 1.3856812z" fill-rule="evenodd"/><path fill="#000000" fill-opacity="0.0" d="m748.5538 477.97638l185.7008 0l0 217.66931l-185.7008 0z" fill-rule="evenodd"/><path stroke="#00ffff" stroke-width="3.0" stroke-linejoin="round" stroke-linecap="butt" d="m748.5538 477.97638l185.7008 0l0 217.66931l-185.7008 0z" fill-rule="evenodd"/><path fill="#000000" fill-opacity="0.0" d="m745.87683 245.83202l185.7008 0l0 217.6693l-185.7008 0z" fill-rule="evenodd"/><path stroke="#ff00ff" stroke-width="3.0" stroke-linejoin="round" stroke-linecap="butt" d="m745.87683 245.83202l185.7008 0l0 217.6693l-185.7008 0z" fill-rule="evenodd"/><path fill="#000000" fill-opacity="0.0" d="m745.87683 22.060368l185.7008 0l0 217.6693l-185.7008 0z" fill-rule="evenodd"/><path stroke="#ff0000" stroke-width="3.0" stroke-linejoin="round" stroke-linecap="butt" d="m745.87683 22.060368l185.7008 0l0 217.6693l-185.7008 0z" fill-rule="evenodd"/><path fill="#000000" fill-opacity="0.0" d="m147.65355 583.8583l217.6693 -80.69293" fill-rule="evenodd"/><path stroke="#000000" stroke-width="3.0" stroke-linejoin="round" stroke-linecap="butt" d="m147.65355 583.8583l200.7917 -74.43616" fill-rule="evenodd"/><path fill="#000000" stroke="#000000" stroke-width="3.0" stroke-linecap="butt" d="m350.16766 514.0683l11.042938 -9.378479l-14.487762 0.08605957z" fill-rule="evenodd"/><path fill="#000000" fill-opacity="0.0" d="m424.6929 513.8373l89.82681 -304.44095" fill-rule="evenodd"/><path stroke="#000000" stroke-width="3.0" stroke-linejoin="round" stroke-linecap="butt" d="m424.6929 513.8373l84.73291 -287.17676" fill-rule="evenodd"/><path fill="#000000" stroke="#000000" stroke-width="3.0" stroke-linecap="butt" d="m514.17847 228.0628l-0.89990234 -14.4600525l-8.605408 11.655472z" fill-rule="evenodd"/><path fill="#000000" fill-opacity="0.0" d="m546.4698 200.26509l274.01575 -74.614174" fill-rule="evenodd"/><path stroke="#000000" stroke-width="3.0" stroke-linejoin="round" stroke-linecap="butt" d="m546.4698 200.26509l256.64813 -69.88498" fill-rule="evenodd"/><path fill="#000000" stroke="#000000" stroke-width="3.0" stroke-linecap="butt" d="m804.4198 135.16122l11.834106 -8.35804l-14.437866 -1.2041931z" fill-rule="evenodd"/><path fill="#00ff00" d="m863.09186 114.30446l48.944885 0l0 -9.763779l19.527588 19.527565l-19.527588 19.52755l0 -9.763779l-48.944885 0z" fill-rule="evenodd"/><path stroke="#000000" stroke-width="1.0" stroke-linejoin="round" stroke-linecap="butt" d="m863.09186 114.30446l48.944885 0l0 -9.763779l19.527588 19.527565l-19.527588 19.52755l0 -9.763779l-48.944885 0z" fill-rule="evenodd"/><path fill="#00ff00" d="m43.984253 577.04724l48.944878 0l0 -9.763794l19.527565 19.527588l-19.527565 19.527527l0 -9.763733l-48.944878 0z" fill-rule="evenodd"/><path stroke="#000000" stroke-width="1.0" stroke-linejoin="round" stroke-linecap="butt" d="m43.984253 577.04724l48.944878 0l0 -9.763794l19.527565 19.527588l-19.527565 19.527527l0 -9.763733l-48.944878 0z" fill-rule="evenodd"/></g></svg>