<svg version="1.1" viewBox="0.0 0.0 960.0 720.0" fill="none" stroke="none" stroke-linecap="square" stroke-miterlimit="10" xmlns:xlink="http://www.w3.org/1999/xlink" xmlns="http://www.w3.org/2000/svg"><clipPath id="p.0"><path d="m0 0l960.0 0l0 720.0l-960.0 0l0 -720.0z" clip-rule="nonzero"/></clipPath><g clip-path="url(#p.0)"><path fill="#000000" fill-opacity="0.0" d="m0 0l960.0 0l0 720.0l-960.0 0z" fill-rule="evenodd"/><path fill="#cfe2f3" d="m10.656168 8.0l299.87402 0l0 695.65356l-299.87402 0z" fill-rule="evenodd"/><path stroke="#000000" stroke-width="1.0" stroke-linejoin="round" stroke-linecap="butt" d="m10.656168 8.0l299.87402 0l0 695.65356l-299.87402 0z" fill-rule="evenodd"/><path fill="#980000" d="m162.226 42.812393l0 17.53125l3.234375 0q1.15625 0 1.640625 0.453125q0.5 0.4375 0.5 1.15625q0 0.703125 -0.5 1.15625q-0.484375 0.4375 -1.640625 0.4375l-9.671875 0q-1.15625 0 -1.65625 -0.4375q-0.484375 -0.453125 -0.484375 -1.171875q0 -0.703125 0.484375 -1.140625q0.5 -0.453125 1.65625 -0.453125l3.234375 0l0 -13.359375l-2.859375 0.75q-0.6875 0.1875 -1.03125 0.1875q-0.609375 0 -1.0625 -0.484375q-0.4375 -0.484375 -0.4375 -1.1875q0 -0.640625 0.328125 -1.0q0.328125 -0.375 1.375 -0.65625l6.890625 -1.78125z" fill-rule="nonzero"/><path fill="#980000" d="m157.601 136.34364l7.015625 0q0.578125 -0.46875 1.09375 -0.46875q0.734375 0 1.15625 0.484375q0.4375 0.484375 0.4375 1.65625l0 1.53125l-14.59375 0l0 -3.390625q8.65625 -7.140625 10.453125 -9.1875q0.90625 -1.046875 0.90625 -1.984375q0 -1.171875 -1.03125 -2.0625q-1.015625 -0.90625 -2.71875 -0.90625q-1.71875 0 -2.859375 1.0q-0.59375 0.53125 -0.953125 1.578125q-0.21875 0.65625 -0.609375 0.9375q-0.375 0.28125 -0.9375 0.28125q-0.65625 0 -1.140625 -0.46875q-0.46875 -0.46875 -0.46875 -1.09375q0 -0.9375 0.859375 -2.34375q0.875 -1.40625 2.53125 -2.25q1.671875 -0.84375 3.625 -0.84375q3.03125 0 4.96875 1.84375q1.9375 1.828125 1.9375 4.4375q0 1.328125 -0.5625 2.46875q-0.546875 1.125 -2.65625 3.125q-1.65625 1.578125 -6.453125 5.65625z" fill-rule="nonzero"/><path fill="#980000" d="m165.1635 204.84364q1.421875 0.96875 2.125 2.25q0.703125 1.265625 0.703125 2.84375q0 1.703125 -0.9375 3.15625q-0.921875 1.4375 -2.6875 2.1875q-1.765625 0.734375 -4.625 0.734375q-3.71875 0 -5.59375 -1.15625q-1.046875 -0.65625 -1.046875 -1.5625q0 -0.6875 0.453125 -1.15625q0.46875 -0.484375 1.125 -0.484375q0.453125 0 0.9375 0.3125q0.6875 0.46875 1.296875 0.625q0.9375 0.21875 2.578125 0.21875q2.796875 0 4.046875 -0.71875q1.25 -0.734375 1.25 -2.0625q0 -0.984375 -0.734375 -1.890625q-0.71875 -0.921875 -1.9375 -1.421875q-0.703125 -0.28125 -2.375 -0.390625q-0.796875 -0.046875 -1.234375 -0.484375q-0.421875 -0.453125 -0.421875 -1.109375q0 -0.6875 0.46875 -1.15625q0.46875 -0.46875 1.1875 -0.46875q1.59375 0 1.703125 -0.015625q0.625 -0.0625 1.25 -0.40625q0.625 -0.34375 1.0 -0.9375q0.390625 -0.609375 0.390625 -1.25q0 -1.015625 -0.90625 -1.75q-0.890625 -0.75 -2.6875 -0.75q-2.3125 0 -3.53125 1.34375q-0.359375 0.390625 -0.578125 0.5q-0.328125 0.171875 -0.734375 0.171875q-0.65625 0 -1.125 -0.46875q-0.46875 -0.46875 -0.46875 -1.15625q0 -1.078125 1.4375 -2.09375q2.09375 -1.484375 5.234375 -1.484375q2.96875 0 4.765625 1.6875q1.796875 1.6875 1.796875 4.0625q0 1.234375 -0.53125 2.3125q-0.53125 1.0625 -1.59375 1.96875z" fill-rule="nonzero"/><path fill="#bf9000" d="m165.2885 271.328l0 12.53125q1.015625 0 1.5 0.453125q0.484375 0.4375 0.484375 1.140625q0 0.703125 -0.5 1.15625q-0.484375 0.453125 -1.484375 0.453125l0 1.28125q1.015625 0 1.5 0.453125q0.484375 0.453125 0.484375 1.15625q0 0.703125 -0.5 1.15625q-0.484375 0.4375 -1.640625 0.4375l-4.296875 0q-1.15625 0 -1.65625 -0.4375q-0.484375 -0.453125 -0.484375 -1.171875q0 -0.703125 0.484375 -1.140625q0.5 -0.453125 1.65625 -0.453125l1.25 0l0 -1.28125l-8.703125 0l0 -2.671875l7.671875 -13.0625l4.234375 0zm-3.203125 12.53125l0 -7.875l-4.640625 7.875l4.640625 0z" fill-rule="nonzero"/><path fill="#bf9000" d="m157.89787 350.53113l0 3.8125q1.78125 -0.5625 3.234375 -0.5625q2.953125 0 4.90625 2.015625q1.953125 2.015625 1.953125 5.203125q0 3.28125 -1.984375 5.15625q-1.96875 1.859375 -6.046875 1.859375q-3.59375 0 -5.6875 -1.359375q-1.21875 -0.78125 -1.21875 -1.796875q0 -0.640625 0.46875 -1.109375q0.484375 -0.484375 1.140625 -0.484375q0.546875 0 1.1875 0.53125q0.640625 0.515625 1.34375 0.71875q1.0 0.296875 2.5625 0.296875q2.90625 0 3.96875 -0.921875q1.0625 -0.9375 1.0625 -2.859375q0 -1.890625 -1.03125 -2.96875q-1.015625 -1.078125 -2.625 -1.078125q-1.734375 0 -3.953125 1.125q-0.5 0.265625 -0.875 0.265625q-0.6875 0 -1.15625 -0.5q-0.453125 -0.5 -0.453125 -1.296875l0 -9.25l9.796875 0q1.15625 0 1.640625 0.453125q0.5 0.4375 0.5 1.15625q0 0.703125 -0.5 1.15625q-0.484375 0.4375 -1.640625 0.4375l-6.59375 0z" fill-rule="nonzero"/><path fill="#bf9000" d="m157.58537 432.60925q1.15625 -0.96875 2.203125 -1.40625q1.046875 -0.453125 2.234375 -0.453125q2.515625 0 4.40625 2.0q1.890625 2.0 1.890625 5.015625q0 2.796875 -1.765625 4.53125q-1.75 1.71875 -4.765625 1.71875q-2.515625 0 -4.140625 -1.171875q-1.625 -1.171875 -2.453125 -3.609375q-0.828125 -2.4375 -0.828125 -5.4375q0 -3.59375 1.640625 -5.96875q1.640625 -2.390625 3.859375 -3.703125q2.21875 -1.3125 4.6875 -1.3125q1.953125 0 3.03125 0.765625q0.703125 0.515625 0.703125 1.3125q0 0.703125 -0.46875 1.1875q-0.46875 0.46875 -1.125 0.46875q-0.375 0 -1.078125 -0.375q-0.421875 -0.21875 -0.8125 -0.21875q-1.53125 0 -3.171875 0.875q-1.640625 0.859375 -2.84375 2.65625q-0.828125 1.25 -1.203125 3.125zm0.46875 4.953125q0.5 1.875 1.34375 2.5625q0.859375 0.6875 2.4375 0.6875q1.578125 0 2.421875 -0.828125q0.859375 -0.828125 0.859375 -2.25q0 -1.625 -0.984375 -2.703125q-0.96875 -1.078125 -2.1875 -1.078125q-0.96875 0 -2.078125 0.953125q-1.09375 0.953125 -1.8125 2.65625z" fill-rule="nonzero"/><path fill="#1c4587" d="m163.89787 502.53113l-7.328125 0q-0.0625 0.9375 -0.484375 1.359375q-0.421875 0.40625 -1.109375 0.40625q-0.71875 0 -1.171875 -0.484375q-0.4375 -0.484375 -0.4375 -1.640625l0 -2.84375l13.90625 0l0 3.203125l-5.1875 15.4375q-0.328125 0.96875 -0.734375 1.296875q-0.390625 0.3125 -0.953125 0.3125q-0.671875 0 -1.15625 -0.46875q-0.46875 -0.46875 -0.46875 -1.078125q0 -0.34375 0.25 -1.09375l4.875 -14.40625z" fill-rule="nonzero"/><path fill="#1c4587" d="m165.13225 585.3124q1.234375 0.953125 1.84375 2.171875q0.625 1.203125 0.625 2.65625q0 1.609375 -0.796875 2.96875q-0.78125 1.34375 -2.46875 2.125q-1.6875 0.78125 -3.75 0.78125q-2.0625 0 -3.71875 -0.78125q-1.65625 -0.78125 -2.453125 -2.140625q-0.78125 -1.359375 -0.78125 -2.953125q0 -1.453125 0.609375 -2.65625q0.625 -1.21875 1.859375 -2.171875q-1.078125 -1.0 -1.625 -2.125q-0.546875 -1.125 -0.546875 -2.375q0 -2.453125 1.875 -4.21875q1.875 -1.78125 4.8125 -1.78125q2.9375 0 4.8125 1.78125q1.875 1.765625 1.875 4.21875q0 1.265625 -0.546875 2.390625q-0.53125 1.125 -1.625 2.109375zm-1.109375 -4.4375q0 -1.1875 -0.9375 -2.015625q-0.921875 -0.84375 -2.5 -0.84375q-1.59375 0 -2.53125 0.84375q-0.921875 0.828125 -0.921875 2.015625q0 1.203125 0.921875 2.046875q0.9375 0.828125 2.53125 0.828125q1.578125 0 2.5 -0.828125q0.9375 -0.84375 0.9375 -2.046875zm0.375 9.421875q0 -1.265625 -1.09375 -2.28125q-1.078125 -1.03125 -2.6875 -1.03125q-1.609375 0 -2.703125 1.03125q-1.078125 1.015625 -1.078125 2.3125q0 1.0 0.9375 1.75q0.9375 0.734375 2.84375 0.734375q1.921875 0 2.84375 -0.734375q0.9375 -0.75 0.9375 -1.78125z" fill-rule="nonzero"/><path fill="#1c4587" d="m165.101 663.1405q-1.203125 1.03125 -2.203125 1.46875q-1.0 0.421875 -2.109375 0.421875q-2.578125 0 -4.515625 -2.0625q-1.921875 -2.0625 -1.921875 -5.125q0 -2.390625 1.328125 -4.34375q1.8125 -2.6875 5.109375 -2.6875q2.359375 0 4.125 1.421875q1.765625 1.40625 2.59375 4.078125q0.828125 2.65625 0.828125 5.546875q0 4.90625 -3.796875 7.875q-2.9375 2.28125 -6.4375 2.28125q-1.9375 0 -3.0 -0.78125q-0.71875 -0.515625 -0.71875 -1.359375q0 -0.6875 0.453125 -1.140625q0.46875 -0.46875 1.140625 -0.46875q0.375 0 0.84375 0.234375q0.609375 0.3125 1.28125 0.3125q2.421875 0 4.46875 -1.640625q2.046875 -1.65625 2.53125 -4.03125zm-0.453125 -5.046875q-0.515625 -2.21875 -1.53125 -3.140625q-1.0 -0.9375 -2.296875 -0.9375q-1.359375 0 -2.3125 1.046875q-0.953125 1.03125 -0.953125 2.75q0 1.796875 0.953125 2.90625q0.96875 1.109375 2.203125 1.109375q2.171875 0 3.9375 -3.734375z" fill-rule="nonzero"/><path fill="#cfe2f3" d="m643.90027 11.401575l299.87402 0l0 695.65356l-299.87402 0z" fill-rule="evenodd"/><path stroke="#000000" stroke-width="1.0" stroke-linejoin="round" stroke-linecap="butt" d="m643.90027 11.401575l299.87402 0l0 695.65356l-299.87402 0z" fill-rule="evenodd"/><path fill="#980000" d="m795.4701 35.21397l0 17.53125l3.234375 0q1.15625 0 1.640625 0.453125q0.5 0.4375 0.5 1.15625q0 0.703125 -0.5 1.15625q-0.484375 0.4375 -1.640625 0.4375l-9.671875 0q-1.15625 0 -1.65625 -0.4375q-0.484375 -0.453125 -0.484375 -1.171875q0 -0.703125 0.484375 -1.140625q0.5 -0.453125 1.65625 -0.453125l3.234375 0l0 -13.359375l-2.859375 0.75q-0.6875 0.1875 -1.03125 0.1875q-0.609375 0 -1.0625 -0.484375q-0.4375 -0.484375 -0.4375 -1.1875q0 -0.640625 0.328125 -1.0q0.328125 -0.375 1.375 -0.65625l6.890625 -1.78125z" fill-rule="nonzero"/><path fill="#980000" d="m790.8451 128.74522l7.015625 0q0.578125 -0.46875 1.09375 -0.46875q0.734375 0 1.15625 0.484375q0.4375 0.484375 0.4375 1.65625l0 1.53125l-14.59375 0l0 -3.390625q8.65625 -7.140625 10.453125 -9.1875q0.90625 -1.046875 0.90625 -1.984375q0 -1.171875 -1.03125 -2.0625q-1.015625 -0.90625 -2.71875 -0.90625q-1.71875 0 -2.859375 1.0q-0.59375 0.53125 -0.953125 1.578125q-0.21875 0.65625 -0.609375 0.9375q-0.375 0.28125 -0.9375 0.28125q-0.65625 0 -1.140625 -0.46875q-0.46875 -0.46875 -0.46875 -1.09375q0 -0.9375 0.859375 -2.34375q0.875 -1.40625 2.53125 -2.25q1.671875 -0.84375 3.625 -0.84375q3.03125 0 4.96875 1.84375q1.9375 1.828125 1.9375 4.4375q0 1.328125 -0.5625 2.46875q-0.546875 1.125 -2.65625 3.125q-1.65625 1.578125 -6.453125 5.65625z" fill-rule="nonzero"/><path fill="#980000" d="m798.4076 197.24522q1.421875 0.96875 2.125 2.25q0.703125 1.265625 0.703125 2.84375q0 1.703125 -0.9375 3.15625q-0.921875 1.4375 -2.6875 2.1875q-1.765625 0.734375 -4.625 0.734375q-3.71875 0 -5.59375 -1.15625q-1.046875 -0.65625 -1.046875 -1.5625q0 -0.6875 0.453125 -1.15625q0.46875 -0.484375 1.125 -0.484375q0.453125 0 0.9375 0.3125q0.6875 0.46875 1.296875 0.625q0.9375 0.21875 2.578125 0.21875q2.796875 0 4.046875 -0.71875q1.25 -0.734375 1.25 -2.0625q0 -0.984375 -0.734375 -1.890625q-0.71875 -0.921875 -1.9375 -1.421875q-0.703125 -0.28125 -2.375 -0.390625q-0.796875 -0.046875 -1.234375 -0.484375q-0.421875 -0.453125 -0.421875 -1.109375q0 -0.6875 0.46875 -1.15625q0.46875 -0.46875 1.1875 -0.46875q1.59375 0 1.703125 -0.015625q0.625 -0.0625 1.25 -0.40625q0.625 -0.34375 1.0 -0.9375q0.390625 -0.609375 0.390625 -1.25q0 -1.015625 -0.90625 -1.75q-0.890625 -0.75 -2.6875 -0.75q-2.3125 0 -3.53125 1.34375q-0.359375 0.390625 -0.578125 0.5q-0.328125 0.171875 -0.734375 0.171875q-0.65625 0 -1.125 -0.46875q-0.46875 -0.46875 -0.46875 -1.15625q0 -1.078125 1.4375 -2.09375q2.09375 -1.484375 5.234375 -1.484375q2.96875 0 4.765625 1.6875q1.796875 1.6875 1.796875 4.0625q0 1.234375 -0.53125 2.3125q-0.53125 1.0625 -1.59375 1.96875z" fill-rule="nonzero"/><path fill="#bf9000" d="m798.5326 263.72958l0 12.53125q1.015625 0 1.5 0.453125q0.484375 0.4375 0.484375 1.140625q0 0.703125 -0.5 1.15625q-0.484375 0.453125 -1.484375 0.453125l0 1.28125q1.015625 0 1.5 0.453125q0.484375 0.453125 0.484375 1.15625q0 0.703125 -0.5 1.15625q-0.484375 0.4375 -1.640625 0.4375l-4.296875 0q-1.15625 0 -1.65625 -0.4375q-0.484375 -0.453125 -0.484375 -1.171875q0 -0.703125 0.484375 -1.140625q0.5 -0.453125 1.65625 -0.453125l1.25 0l0 -1.28125l-8.703125 0l0 -2.671875l7.671875 -13.0625l4.234375 0zm-3.203125 12.53125l0 -7.875l-4.640625 7.875l4.640625 0z" fill-rule="nonzero"/><path fill="#bf9000" d="m791.14197 342.9327l0 3.8125q1.78125 -0.5625 3.234375 -0.5625q2.953125 0 4.90625 2.015625q1.953125 2.015625 1.953125 5.203125q0 3.28125 -1.984375 5.15625q-1.96875 1.859375 -6.046875 1.859375q-3.59375 0 -5.6875 -1.359375q-1.21875 -0.78125 -1.21875 -1.796875q0 -0.640625 0.46875 -1.109375q0.484375 -0.484375 1.140625 -0.484375q0.546875 0 1.1875 0.53125q0.640625 0.515625 1.34375 0.71875q1.0 0.296875 2.5625 0.296875q2.90625 0 3.96875 -0.921875q1.0625 -0.9375 1.0625 -2.859375q0 -1.890625 -1.03125 -2.96875q-1.015625 -1.078125 -2.625 -1.078125q-1.734375 0 -3.953125 1.125q-0.5 0.265625 -0.875 0.265625q-0.6875 0 -1.15625 -0.5q-0.453125 -0.5 -0.453125 -1.296875l0 -9.25l9.796875 0q1.15625 0 1.640625 0.453125q0.5 0.4375 0.5 1.15625q0 0.703125 -0.5 1.15625q-0.484375 0.4375 -1.640625 0.4375l-6.59375 0z" fill-rule="nonzero"/><path fill="#bf9000" d="m790.82947 425.01083q1.15625 -0.96875 2.203125 -1.40625q1.046875 -0.453125 2.234375 -0.453125q2.515625 0 4.40625 2.0q1.890625 2.0 1.890625 5.015625q0 2.796875 -1.765625 4.53125q-1.75 1.71875 -4.765625 1.71875q-2.515625 0 -4.140625 -1.171875q-1.625 -1.171875 -2.453125 -3.609375q-0.828125 -2.4375 -0.828125 -5.4375q0 -3.59375 1.640625 -5.96875q1.640625 -2.390625 3.859375 -3.703125q2.21875 -1.3125 4.6875 -1.3125q1.953125 0 3.03125 0.765625q0.703125 0.515625 0.703125 1.3125q0 0.703125 -0.46875 1.1875q-0.46875 0.46875 -1.125 0.46875q-0.375 0 -1.078125 -0.375q-0.421875 -0.21875 -0.8125 -0.21875q-1.53125 0 -3.171875 0.875q-1.640625 0.859375 -2.84375 2.65625q-0.828125 1.25 -1.203125 3.125zm0.46875 4.953125q0.5 1.875 1.34375 2.5625q0.859375 0.6875 2.4375 0.6875q1.578125 0 2.421875 -0.828125q0.859375 -0.828125 0.859375 -2.25q0 -1.625 -0.984375 -2.703125q-0.96875 -1.078125 -2.1875 -1.078125q-0.96875 0 -2.078125 0.953125q-1.09375 0.953125 -1.8125 2.65625z" fill-rule="nonzero"/><path fill="#0c343d" d="m797.14197 494.9327l-7.328125 0q-0.0625 0.9375 -0.484375 1.359375q-0.421875 0.40625 -1.109375 0.40625q-0.71875 0 -1.171875 -0.484375q-0.4375 -0.484375 -0.4375 -1.640625l0 -2.84375l13.90625 0l0 3.203125l-5.1875 15.4375q-0.328125 0.96875 -0.734375 1.296875q-0.390625 0.3125 -0.953125 0.3125q-0.671875 0 -1.15625 -0.46875q-0.46875 -0.46875 -0.46875 -1.078125q0 -0.34375 0.25 -1.09375l4.875 -14.40625z" fill-rule="nonzero"/><path fill="#0c343d" d="m798.37634 577.7139q1.234375 0.953125 1.84375 2.171875q0.625 1.203125 0.625 2.65625q0 1.609375 -0.796875 2.96875q-0.78125 1.34375 -2.46875 2.125q-1.6875 0.78125 -3.75 0.78125q-2.0625 0 -3.71875 -0.78125q-1.65625 -0.78125 -2.453125 -2.140625q-0.78125 -1.359375 -0.78125 -2.953125q0 -1.453125 0.609375 -2.65625q0.625 -1.21875 1.859375 -2.171875q-1.078125 -1.0 -1.625 -2.125q-0.546875 -1.125 -0.546875 -2.375q0 -2.453125 1.875 -4.21875q1.875 -1.78125 4.8125 -1.78125q2.9375 0 4.8125 1.78125q1.875 1.765625 1.875 4.21875q0 1.265625 -0.546875 2.390625q-0.53125 1.125 -1.625 2.109375zm-1.109375 -4.4375q0 -1.1875 -0.9375 -2.015625q-0.921875 -0.84375 -2.5 -0.84375q-1.59375 0 -2.53125 0.84375q-0.921875 0.828125 -0.921875 2.015625q0 1.203125 0.921875 2.046875q0.9375 0.828125 2.53125 0.828125q1.578125 0 2.5 -0.828125q0.9375 -0.84375 0.9375 -2.046875zm0.375 9.421875q0 -1.265625 -1.09375 -2.28125q-1.078125 -1.03125 -2.6875 -1.03125q-1.609375 0 -2.703125 1.03125q-1.078125 1.015625 -1.078125 2.3125q0 1.0 0.9375 1.75q0.9375 0.734375 2.84375 0.734375q1.921875 0 2.84375 -0.734375q0.9375 -0.75 0.9375 -1.78125z" fill-rule="nonzero"/><path fill="#0c343d" d="m798.3451 655.54205q-1.203125 1.03125 -2.203125 1.46875q-1.0 0.421875 -2.109375 0.421875q-2.578125 0 -4.515625 -2.0625q-1.921875 -2.0625 -1.921875 -5.125q0 -2.390625 1.328125 -4.34375q1.8125 -2.6875 5.109375 -2.6875q2.359375 0 4.125 1.421875q1.765625 1.40625 2.59375 4.078125q0.828125 2.65625 0.828125 5.546875q0 4.90625 -3.796875 7.875q-2.9375 2.28125 -6.4375 2.28125q-1.9375 0 -3.0 -0.78125q-0.71875 -0.515625 -0.71875 -1.359375q0 -0.6875 0.453125 -1.140625q0.46875 -0.46875 1.140625 -0.46875q0.375 0 0.84375 0.234375q0.609375 0.3125 1.28125 0.3125q2.421875 0 4.46875 -1.640625q2.046875 -1.65625 2.53125 -4.03125zm-0.453125 -5.046875q-0.515625 -2.21875 -1.53125 -3.140625q-1.0 -0.9375 -2.296875 -0.9375q-1.359375 0 -2.3125 1.046875q-0.953125 1.03125 -0.953125 2.75q0 1.796875 0.953125 2.90625q0.96875 1.109375 2.203125 1.109375q2.171875 0 3.9375 -3.734375z" fill-rule="nonzero"/><path fill="#000000" fill-opacity="0.0" d="m22.076115 15.283464l275.0866 0l0 222.4567l-275.0866 0z" fill-rule="evenodd"/><path stroke="#980000" stroke-width="3.0" stroke-linejoin="round" stroke-linecap="butt" d="m22.076115 15.283464l275.0866 0l0 222.4567l-275.0866 0z" fill-rule="evenodd"/><path fill="#000000" fill-opacity="0.0" d="m656.29395 23.283464l275.0866 0l0 202.55118l-275.0866 0z" fill-rule="evenodd"/><path stroke="#980000" stroke-width="3.0" stroke-linejoin="round" stroke-linecap="butt" d="m656.29395 23.283464l275.0866 0l0 202.55118l-275.0866 0z" fill-rule="evenodd"/><path fill="#000000" fill-opacity="0.0" d="m23.04987 472.79266l275.0866 0l0 222.45667l-275.0866 0z" fill-rule="evenodd"/><path stroke="#1c4587" stroke-width="3.0" stroke-linejoin="round" stroke-linecap="butt" d="m23.04987 472.79266l275.0866 0l0 222.45667l-275.0866 0z" fill-rule="evenodd"/><path fill="#000000" fill-opacity="0.0" d="m23.04987 244.03806l275.0866 0l0 222.4567l-275.0866 0z" fill-rule="evenodd"/><path stroke="#bf9000" stroke-width="3.0" stroke-linejoin="round" stroke-linecap="butt" d="m23.04987 244.03806l275.0866 0l0 222.4567l-275.0866 0z" fill-rule="evenodd"/><path fill="#000000" fill-opacity="0.0" d="m656.29395 237.73885l275.0866 0l0 222.45668l-275.0866 0z" fill-rule="evenodd"/><path stroke="#bf9000" stroke-width="3.0" stroke-linejoin="round" stroke-linecap="butt" d="m656.29395 237.73885l275.0866 0l0 222.45668l-275.0866 0z" fill-rule="evenodd"/><path fill="#000000" fill-opacity="0.0" d="m656.29395 472.10236l275.0866 0l0 222.45673l-275.0866 0z" fill-rule="evenodd"/><path stroke="#1c4587" stroke-width="3.0" stroke-linejoin="round" stroke-linecap="butt" d="m656.29395 472.10236l275.0866 0l0 222.45673l-275.0866 0z" fill-rule="evenodd"/><path fill="#000000" fill-opacity="0.0" d="m185.09448 52.64042l579.0551 0" fill-rule="evenodd"/><path stroke="#980000" stroke-width="3.0" stroke-linejoin="round" stroke-linecap="butt" d="m185.09448 52.64042l561.0551 0" fill-rule="evenodd"/><path fill="#980000" stroke="#980000" stroke-width="3.0" stroke-linecap="butt" d="m746.1496 57.595615l13.614319 -4.9551964l-13.614319 -4.9551964z" fill-rule="evenodd"/><path fill="#000000" fill-opacity="0.0" d="m188.49081 129.05774l577.3544 -64.53543" fill-rule="evenodd"/><path stroke="#980000" stroke-width="3.0" stroke-linejoin="round" stroke-linecap="butt" d="m188.49081 129.05774l559.4657 -62.53588" fill-rule="evenodd"/><path fill="#980000" stroke="#980000" stroke-width="3.0" stroke-linecap="butt" d="m748.507 71.44639l12.979553 -6.4368896l-14.080444 -3.4121704z" fill-rule="evenodd"/><path fill="#000000" fill-opacity="0.0" d="m185.09448 207.15224l579.0551 -130.74017" fill-rule="evenodd"/><path stroke="#980000" stroke-width="3.0" stroke-linejoin="round" stroke-linecap="butt" d="m185.09448 207.15224l561.4971 -126.77588" fill-rule="evenodd"/><path fill="#980000" stroke="#980000" stroke-width="3.0" stroke-linecap="butt" d="m747.6829 85.209885l12.18866 -7.831909l-14.371338 -1.835144z" fill-rule="evenodd"/><path fill="#000000" fill-opacity="0.0" d="m186.79265 268.30185l590.92914 0" fill-rule="evenodd"/><path stroke="#ff9900" stroke-width="3.0" stroke-linejoin="round" stroke-linecap="butt" d="m186.79265 268.30185l572.92914 0" fill-rule="evenodd"/><path fill="#ff9900" stroke="#ff9900" stroke-width="3.0" stroke-linecap="butt" d="m759.7218 273.25705l13.614258 -4.9552l-13.614258 -4.9552z" fill-rule="evenodd"/><path fill="#000000" fill-opacity="0.0" d="m190.18898 358.30185l590.92914 -74.70868" fill-rule="evenodd"/><path stroke="#ff9900" stroke-width="3.0" stroke-linejoin="round" stroke-linecap="butt" d="m190.18898 358.30185l573.0713 -72.45099" fill-rule="evenodd"/><path fill="#ff9900" stroke="#ff9900" stroke-width="3.0" stroke-linecap="butt" d="m763.8818 290.76694l12.885254 -6.6236877l-14.128296 -3.208435z" fill-rule="evenodd"/><path fill="#000000" fill-opacity="0.0" d="m191.88715 426.2257l592.66144 -130.74014" fill-rule="evenodd"/><path stroke="#ff9900" stroke-width="3.0" stroke-linejoin="round" stroke-linecap="butt" d="m191.88715 426.2257l575.084 -126.86261" fill-rule="evenodd"/><path fill="#ff9900" stroke="#ff9900" stroke-width="3.0" stroke-linecap="butt" d="m768.03864 304.20197l12.227173 -7.771637l-14.362061 -1.9060669z" fill-rule="evenodd"/><path fill="#000000" fill-opacity="0.0" d="m174.90552 504.3386l603.2441 -13.543304" fill-rule="evenodd"/><path stroke="#1c4587" stroke-width="3.0" stroke-linejoin="round" stroke-linecap="butt" d="m174.90552 504.3386l585.2486 -13.139313" fill-rule="evenodd"/><path fill="#1c4587" stroke="#1c4587" stroke-width="3.0" stroke-linecap="butt" d="m760.2654 496.15323l13.499634 -5.2595215l-13.722107 -4.6483765z" fill-rule="evenodd"/><path fill="#000000" fill-opacity="0.0" d="m181.69817 584.1522l604.9449 -76.409454" fill-rule="evenodd"/><path stroke="#1c4587" stroke-width="3.0" stroke-linejoin="round" stroke-linecap="butt" d="m181.69817 584.1522l587.08673 -74.15381" fill-rule="evenodd"/><path fill="#1c4587" stroke="#1c4587" stroke-width="3.0" stroke-linecap="butt" d="m769.4059 514.91455l12.886047 -6.6221924l-14.12793 -3.210083z" fill-rule="evenodd"/><path fill="#000000" fill-opacity="0.0" d="m181.69817 665.66144l604.5354 -146.04724" fill-rule="evenodd"/><path stroke="#1c4587" stroke-width="3.0" stroke-linejoin="round" stroke-linecap="butt" d="m181.69817 665.66144l587.03876 -141.82031" fill-rule="evenodd"/><path fill="#1c4587" stroke="#1c4587" stroke-width="3.0" stroke-linecap="butt" d="m769.9006 528.6578l12.069946 -8.013733l-14.397217 -1.6195679z" fill-rule="evenodd"/><path fill="#000000" fill-opacity="0.0" d="m186.79265 585.8478l585.8583 -460.189" fill-rule="evenodd"/><path stroke="#000000" stroke-width="3.0" stroke-linejoin="round" stroke-linecap="butt" d="m186.79265 585.8478l571.703 -449.07013" fill-rule="evenodd"/><path fill="#000000" stroke="#000000" stroke-width="3.0" stroke-linecap="butt" d="m761.5566 140.67444l7.6453857 -12.306534l-13.767212 4.512985z" fill-rule="evenodd"/><path fill="#ff0000" d="m367.7818 406.5136l15.421814 -14.211945l15.456482 16.772278l15.456482 -16.772278l15.421814 14.211945l-16.618866 18.03363l16.618866 18.03363l-15.421814 14.211945l-15.456482 -16.772278l-15.456482 16.772278l-15.421814 -14.211945l16.618896 -18.03363z" fill-rule="evenodd"/><path stroke="#000000" stroke-width="1.0" stroke-linejoin="round" stroke-linecap="butt" d="m367.7818 406.5136l15.421814 -14.211945l15.456482 16.772278l15.456482 -16.772278l15.421814 14.211945l-16.618866 18.03363l16.618866 18.03363l-15.421814 14.211945l-15.456482 -16.772278l-15.456482 16.772278l-15.421814 -14.211945l16.618896 -18.03363z" fill-rule="evenodd"/><path fill="#ff0000" d="m808.3018 114.30446l75.55908 0l0 -9.763779l19.527527 19.527565l-19.527527 19.52755l0 -9.763779l-75.55908 0z" fill-rule="evenodd"/><path stroke="#000000" stroke-width="1.0" stroke-linejoin="round" stroke-linecap="butt" d="m808.3018 114.30446l75.55908 0l0 -9.763779l19.527527 19.527565l-19.527527 19.52755l0 -9.763779l-75.55908 0z" fill-rule="evenodd"/><path fill="#ff0000" d="m36.377953 573.56696l75.55905 0l0 -9.763794l19.527565 19.527527l-19.527565 19.527588l0 -9.763794l-75.55905 0z" fill-rule="evenodd"/><path stroke="#000000" stroke-width="1.0" stroke-linejoin="round" stroke-linecap="butt" d="m36.377953 573.56696l75.55905 0l0 -9.763794l19.527565 19.527527l-19.527565 19.527588l0 -9.763794l-75.55905 0z" fill-rule="evenodd"/></g></svg>