<svg version="1.1" viewBox="0.0 0.0 960.0 720.0" fill="none" stroke="none" stroke-linecap="square" stroke-miterlimit="10" xmlns:xlink="http://www.w3.org/1999/xlink" xmlns="http://www.w3.org/2000/svg"><clipPath id="p.0"><path d="m0 0l960.0 0l0 720.0l-960.0 0l0 -720.0z" clip-rule="nonzero"/></clipPath><g clip-path="url(#p.0)"><path fill="#000000" fill-opacity="0.0" d="m0 0l960.0 0l0 720.0l-960.0 0z" fill-rule="evenodd"/><path fill="#cfe2f3" d="m10.656168 12.173228l299.87402 0l0 695.65356l-299.87402 0z" fill-rule="evenodd"/><path stroke="#000000" stroke-width="1.0" stroke-linejoin="round" stroke-linecap="butt" d="m10.656168 12.173228l299.87402 0l0 695.65356l-299.87402 0z" fill-rule="evenodd"/><path fill="#000000" d="m161.24162 47.844997l0 18.562496l4.5 0q0.46875 0 0.671875 0.1875q0.203125 0.171875 0.203125 0.46875q0 0.28125 -0.203125 0.46875q-0.203125 0.1875 -0.671875 0.1875l-10.3125 0q-0.46875 0 -0.671875 -0.1875q-0.203125 -0.1875 -0.203125 -0.46875q0 -0.296875 0.203125 -0.46875q0.203125 -0.1875 0.671875 -0.1875l4.5 0l0 -16.749996l-4.28125 1.34375q-0.3125 0.09375 -0.453125 0.09375q-0.234375 0 -0.4375 -0.1875q-0.1875 -0.203125 -0.1875 -0.46875q0 -0.234375 0.15625 -0.4375q0.125 -0.125 0.515625 -0.265625l6.0 -1.890625z" fill-rule="nonzero"/><path fill="#000000" d="m154.94475 142.4075l10.078125 0l0 -0.515625q0 -0.46875 0.1875 -0.671875q0.1875 -0.203125 0.484375 -0.203125q0.28125 0 0.46875 0.203125q0.1875 0.203125 0.1875 0.671875l0 1.828125l-12.6875 0l0 -1.9375q4.0 -3.59375 7.78125 -7.3125q1.765625 -1.734375 2.421875 -2.546875q0.65625 -0.8125 0.890625 -1.421875q0.25 -0.625 0.25 -1.25q0 -1.6875076 -1.359375 -2.9843826q-1.359375 -1.296875 -3.28125 -1.296875q-1.71875 0 -3.046875 0.984375q-1.328125 0.984375 -1.71875 2.4375076q-0.09375 0.375 -0.234375 0.484375q-0.1875 0.15625 -0.4375 0.15625q-0.265625 0 -0.453125 -0.171875q-0.171875 -0.1875 -0.171875 -0.4375q0 -0.7500076 0.8125 -2.0312576q0.828125 -1.28125 2.265625 -2.015625q1.453125 -0.734375 2.96875 -0.734375q2.453125 0 4.21875 1.703125q1.765625 1.703125 1.765625 3.8593826q0 0.90625 -0.296875 1.671875q-0.296875 0.75 -1.015625 1.65625q-0.703125 0.890625 -2.546875 2.703125q-4.625 4.5625 -7.53125 7.078125l0 0.09375z" fill-rule="nonzero"/><path fill="#000000" d="m163.2885 209.04813q1.8125 0.8125 2.765625 2.234375q0.953125 1.40625 0.953125 2.9375q0 2.359375 -1.921875 4.171875q-1.90625 1.796875 -4.78125 1.796875q-1.6875 0 -3.5 -0.71875q-1.8125 -0.71875 -2.53125 -1.46875q-0.234375 -0.25 -0.234375 -0.53125q0 -0.25 0.171875 -0.4375q0.1875 -0.1875 0.4375 -0.1875q0.25 0 0.5625 0.234375q2.421875 1.796875 5.125 1.796875q2.28125 0 3.8125 -1.421875q1.546875 -1.4375 1.546875 -3.1875q0 -1.171875 -0.765625 -2.296875q-0.75 -1.125 -2.171875 -1.765625q-1.421875 -0.65625 -2.875 -0.65625q-0.46875 0 -0.671875 -0.171875q-0.203125 -0.1875 -0.203125 -0.484375q0 -0.28125 0.1875 -0.46875q0.203125 -0.1875 0.59375 -0.1875l1.125 0.015625q1.765625 0 2.90625 -1.078125q1.15625 -1.078125 1.15625 -2.5q0 -1.46875 -1.203125 -2.59375q-1.203125 -1.125 -3.140625 -1.125q-1.359375 0 -2.5 0.46875q-1.140625 0.46875 -1.828125 1.28125q-0.25 0.3125 -0.390625 0.390625q-0.125 0.0625 -0.296875 0.0625q-0.265625 0 -0.453125 -0.171875q-0.1875 -0.1875 -0.1875 -0.4375q0 -0.625 1.359375 -1.578125q1.890625 -1.328125 4.296875 -1.328125q2.484375 0 4.078125 1.5q1.59375 1.484375 1.59375 3.546875q0 1.3125 -0.765625 2.484375q-0.765625 1.171875 -2.25 1.875z" fill-rule="nonzero"/><path fill="#000000" d="m163.0385 290.2356l-8.703125 0l0 -1.515625l7.296875 -12.609375l2.734375 0l0 12.8125l1.09375 0q0.484375 0 0.6875 0.1875q0.203125 0.171875 0.203125 0.46875q0 0.28125 -0.203125 0.46875q-0.203125 0.1875 -0.6875 0.1875l-1.09375 0l0 4.171875l1.09375 0q0.484375 0 0.6875 0.1875q0.203125 0.171875 0.203125 0.46875q0 0.28125 -0.203125 0.46875q-0.203125 0.1875 -0.6875 0.1875l-4.875 0q-0.484375 0 -0.6875 -0.1875q-0.203125 -0.1875 -0.203125 -0.46875q0 -0.296875 0.203125 -0.46875q0.203125 -0.1875 0.6875 -0.1875l2.453125 0l0 -4.171875zm0 -1.3125l0 -11.484375l-0.6875 0l-6.640625 11.484375l7.328125 0z" fill-rule="nonzero"/><path fill="#000000" d="m156.976 353.43872l0 6.421875q1.15625 -0.484375 2.21875 -0.71875q1.0625 -0.25 2.015625 -0.25q2.46875 0 4.125 1.734375q1.671875 1.734375 1.671875 4.5625q0 3.125 -1.875 5.0625q-1.875 1.9375 -4.6875 1.9375q-1.859375 0 -3.578125 -0.828125q-1.21875 -0.578125 -2.21875 -1.4375q-0.59375 -0.515625 -0.59375 -0.859375q0 -0.28125 0.1875 -0.46875q0.1875 -0.203125 0.4375 -0.203125q0.265625 0 0.5625 0.28125q2.359375 2.203125 5.140625 2.203125q2.296875 0 3.796875 -1.5625q1.5 -1.578125 1.5 -4.1875q0 -2.21875 -1.296875 -3.5625q-1.296875 -1.359375 -3.296875 -1.359375q-2.046875 0 -4.09375 1.078125q-0.5 0.25 -0.703125 0.25q-0.28125 0 -0.453125 -0.1875q-0.171875 -0.1875 -0.171875 -0.53125l0 -8.703125l9.15625 0q0.46875 0 0.671875 0.1875q0.203125 0.1875 0.203125 0.484375q0 0.28125 -0.203125 0.46875q-0.203125 0.1875 -0.671875 0.1875l-7.84375 0z" fill-rule="nonzero"/><path fill="#000000" d="m156.67912 439.4231q1.21875 -1.796875 2.5 -2.65625q1.296875 -0.859375 2.875 -0.859375q2.09375 0 3.71875 1.75q1.625 1.734375 1.625 4.296875q0 2.34375 -1.484375 4.296875q-1.484375 1.9375 -4.09375 1.9375q-1.703125 0 -3.1875 -1.046875q-1.46875 -1.046875 -2.3125 -3.21875q-1.046875 -2.703125 -1.046875 -5.984375q0 -2.46875 0.984375 -4.59375q0.75 -1.640625 2.0 -2.875q1.25 -1.25 2.90625 -2.03125q1.671875 -0.796875 3.609375 -0.796875q1.3125 0 2.1875 0.53125q0.375 0.234375 0.375 0.625q0 0.28125 -0.171875 0.46875q-0.171875 0.171875 -0.4375 0.171875q-0.203125 0 -0.484375 -0.15625q-0.640625 -0.3125 -1.59375 -0.3125q-3.046875 0 -5.5625 2.625q-2.5 2.609375 -2.5 6.21875q0 0.515625 0.09375 1.609375zm0.296875 2.171875q0.59375 2.84375 1.859375 4.0625q1.28125 1.21875 3.015625 1.21875q1.75 0 2.984375 -1.359375q1.25 -1.375 1.25 -3.5625q0 -2.046875 -1.25 -3.390625q-1.25 -1.34375 -2.828125 -1.34375q-1.515625 0 -2.921875 1.296875q-0.9375 0.859375 -2.109375 3.078125z" fill-rule="nonzero"/><path fill="#000000" d="m165.00725 506.03247l0 -0.59375l-9.40625 0l0 1.15625q0 0.46875 -0.1875 0.671875q-0.171875 0.203125 -0.46875 0.203125q-0.28125 0 -0.46875 -0.203125q-0.1875 -0.203125 -0.1875 -0.671875l0 -2.484375l12.046875 0l0 2.09375l-5.28125 16.875q-0.125 0.40625 -0.296875 0.546875q-0.171875 0.125 -0.390625 0.125q-0.28125 0 -0.46875 -0.1875q-0.1875 -0.1875 -0.1875 -0.4375q0 -0.15625 0.09375 -0.4375l5.203125 -16.65625z" fill-rule="nonzero"/><path fill="#000000" d="m163.2885 589.5481q1.640625 0.796875 2.46875 2.109375q0.84375 1.296875 0.84375 2.796875q0 2.328125 -1.75 4.03125q-1.75 1.703125 -4.25 1.703125q-2.5 0 -4.25 -1.703125q-1.75 -1.703125 -1.75 -4.03125q0 -1.484375 0.828125 -2.78125q0.84375 -1.3125 2.5 -2.125q-1.4375 -0.828125 -2.09375 -1.71875q-0.90625 -1.265625 -0.90625 -2.796875q0 -2.15625 1.65625 -3.765625q1.671875 -1.625 4.015625 -1.625q2.359375 0 4.015625 1.625q1.65625 1.609375 1.65625 3.765625q0 1.53125 -0.90625 2.78125q-0.640625 0.90625 -2.078125 1.734375zm1.640625 -4.46875q0 -1.6875 -1.265625 -2.890625q-1.25 -1.21875 -3.078125 -1.21875q-1.8125 0 -3.078125 1.21875q-1.25 1.21875 -1.25 2.875q0 1.53125 1.234375 2.6875q1.25 1.140625 3.09375 1.140625q1.859375 0 3.09375 -1.140625q1.25 -1.15625 1.25 -2.671875zm0.359375 9.40625q0 -1.734375 -1.34375 -3.015625q-1.34375 -1.28125 -3.34375 -1.28125q-2.0 0 -3.34375 1.28125q-1.34375 1.28125 -1.34375 3.0q0 1.78125 1.34375 3.09375q1.359375 1.3125 3.34375 1.3125q1.984375 0 3.328125 -1.3125q1.359375 -1.3125 1.359375 -3.078125z" fill-rule="nonzero"/><path fill="#000000" d="m165.976 664.6262q-1.015625 1.796875 -2.421875 2.703125q-1.390625 0.90625 -2.859375 0.90625q-1.359375 0 -2.640625 -0.78125q-1.265625 -0.78125 -2.015625 -2.28125q-0.75 -1.515625 -0.75 -3.171875q0 -2.40625 1.484375 -4.375q1.5 -1.984375 4.0 -1.984375q1.78125 0 3.25 1.109375q1.46875 1.109375 2.28125 3.21875q1.046875 2.703125 1.046875 6.28125q0 2.78125 -0.890625 4.625q-0.59375 1.25 -1.75 2.421875q-1.140625 1.171875 -2.578125 1.90625q-1.96875 0.984375 -4.09375 0.984375q-1.40625 0 -2.296875 -0.53125q-0.40625 -0.25 -0.40625 -0.625q0 -0.265625 0.1875 -0.4375q0.1875 -0.1875 0.453125 -0.1875q0.1875 0 0.546875 0.171875q0.609375 0.296875 1.40625 0.296875q3.328125 0 5.71875 -2.390625q2.390625 -2.40625 2.390625 -6.015625q0 -0.65625 -0.0625 -1.84375zm-0.25 -2.1875q-0.828125 -3.171875 -2.0625 -4.3125q-1.21875 -1.15625 -2.859375 -1.15625q-1.671875 0 -2.9375 1.40625q-1.265625 1.40625 -1.265625 3.609375q0 2.140625 1.265625 3.546875q1.265625 1.390625 2.859375 1.390625q0.921875 0 1.8125 -0.5q0.90625 -0.5 1.703125 -1.5q0.515625 -0.671875 1.484375 -2.484375z" fill-rule="nonzero"/><path fill="#cfe2f3" d="m618.0105 12.944881l325.7638 0l0 694.1102l-325.7638 0z" fill-rule="evenodd"/><path stroke="#000000" stroke-width="1.0" stroke-linejoin="round" stroke-linecap="butt" d="m618.0105 12.944881l325.7638 0l0 694.1102l-325.7638 0z" fill-rule="evenodd"/><path fill="#000000" d="m781.54083 36.844997l0 18.5625l4.5 0q0.46875 0 0.671875 0.1875q0.203125 0.171875 0.203125 0.46875q0 0.28125 -0.203125 0.46875q-0.203125 0.1875 -0.671875 0.1875l-10.3125 0q-0.46875 0 -0.671875 -0.1875q-0.203125 -0.1875 -0.203125 -0.46875q0 -0.296875 0.203125 -0.46875q0.203125 -0.1875 0.671875 -0.1875l4.5 0l0 -16.75l-4.28125 1.34375q-0.3125 0.09375 -0.453125 0.09375q-0.234375 0 -0.4375 -0.1875q-0.1875 -0.203125 -0.1875 -0.46875q0 -0.234375 0.15625 -0.4375q0.125 -0.125 0.515625 -0.265625l6.0 -1.890625z" fill-rule="nonzero"/><path fill="#000000" d="m775.24396 131.4075l10.078125 0l0 -0.515625q0 -0.46875 0.1875 -0.671875q0.1875 -0.203125 0.484375 -0.203125q0.28125 0 0.46875 0.203125q0.1875 0.203125 0.1875 0.671875l0 1.828125l-12.6875 0l0 -1.9375q4.0 -3.59375 7.78125 -7.3125q1.765625 -1.734375 2.421875 -2.546875q0.65625 -0.8125 0.890625 -1.421875q0.25 -0.625 0.25 -1.25q0 -1.6875 -1.359375 -2.984375q-1.359375 -1.296875 -3.28125 -1.296875q-1.71875 0 -3.046875 0.984375q-1.328125 0.984375 -1.71875 2.4375q-0.09375 0.375 -0.234375 0.484375q-0.1875 0.15625 -0.4375 0.15625q-0.265625 0 -0.453125 -0.171875q-0.171875 -0.1875 -0.171875 -0.4375q0 -0.75 0.8125 -2.03125q0.828125 -1.28125 2.265625 -2.015625q1.453125 -0.734375 2.96875 -0.734375q2.453125 0 4.21875 1.703125q1.765625 1.703125 1.765625 3.859375q0 0.90625 -0.296875 1.671875q-0.296875 0.75 -1.015625 1.65625q-0.703125 0.890625 -2.546875 2.703125q-4.625 4.5625 -7.53125 7.078125l0 0.09375z" fill-rule="nonzero"/><path fill="#000000" d="m783.5877 198.04813q1.8125 0.8125 2.765625 2.234375q0.953125 1.40625 0.953125 2.9375q0 2.359375 -1.921875 4.171875q-1.90625 1.796875 -4.78125 1.796875q-1.6875 0 -3.5 -0.71875q-1.8125 -0.71875 -2.53125 -1.46875q-0.234375 -0.25 -0.234375 -0.53125q0 -0.25 0.171875 -0.4375q0.1875 -0.1875 0.4375 -0.1875q0.25 0 0.5625 0.234375q2.421875 1.796875 5.125 1.796875q2.28125 0 3.8125 -1.421875q1.546875 -1.4375 1.546875 -3.1875q0 -1.171875 -0.765625 -2.296875q-0.75 -1.125 -2.171875 -1.765625q-1.421875 -0.65625 -2.875 -0.65625q-0.46875 0 -0.671875 -0.171875q-0.203125 -0.1875 -0.203125 -0.484375q0 -0.28125 0.1875 -0.46875q0.203125 -0.1875 0.59375 -0.1875l1.125 0.015625q1.765625 0 2.90625 -1.078125q1.15625 -1.078125 1.15625 -2.5q0 -1.46875 -1.203125 -2.59375q-1.203125 -1.125 -3.140625 -1.125q-1.359375 0 -2.5 0.46875q-1.140625 0.46875 -1.828125 1.28125q-0.25 0.3125 -0.390625 0.390625q-0.125 0.0625 -0.296875 0.0625q-0.265625 0 -0.453125 -0.171875q-0.1875 -0.1875 -0.1875 -0.4375q0 -0.625 1.359375 -1.578125q1.890625 -1.328125 4.296875 -1.328125q2.484375 0 4.078125 1.5q1.59375 1.484375 1.59375 3.546875q0 1.3125 -0.765625 2.484375q-0.765625 1.171875 -2.25 1.875z" fill-rule="nonzero"/><path fill="#000000" d="m783.3377 279.23563l-8.703125 0l0 -1.515625l7.296875 -12.609375l2.734375 0l0 12.8125l1.09375 0q0.484375 0 0.6875 0.1875q0.203125 0.171875 0.203125 0.46875q0 0.28125 -0.203125 0.46875q-0.203125 0.1875 -0.6875 0.1875l-1.09375 0l0 4.171875l1.09375 0q0.484375 0 0.6875 0.1875q0.203125 0.171875 0.203125 0.46875q0 0.28125 -0.203125 0.46875q-0.203125 0.1875 -0.6875 0.1875l-4.875 0q-0.484375 0 -0.6875 -0.1875q-0.203125 -0.1875 -0.203125 -0.46875q0 -0.296875 0.203125 -0.46875q0.203125 -0.1875 0.6875 -0.1875l2.453125 0l0 -4.171875zm0 -1.3125l0 -11.484375l-0.6875 0l-6.640625 11.484375l7.328125 0z" fill-rule="nonzero"/><path fill="#000000" d="m777.2752 342.43875l0 6.421875q1.15625 -0.484375 2.21875 -0.71875q1.0625 -0.25 2.015625 -0.25q2.46875 0 4.125 1.734375q1.671875 1.734375 1.671875 4.5625q0 3.125 -1.875 5.0625q-1.875 1.9375 -4.6875 1.9375q-1.859375 0 -3.578125 -0.828125q-1.21875 -0.578125 -2.21875 -1.4375q-0.59375 -0.515625 -0.59375 -0.859375q0 -0.28125 0.1875 -0.46875q0.1875 -0.203125 0.4375 -0.203125q0.265625 0 0.5625 0.28125q2.359375 2.203125 5.140625 2.203125q2.296875 0 3.796875 -1.5625q1.5 -1.578125 1.5 -4.1875q0 -2.21875 -1.296875 -3.5625q-1.296875 -1.359375 -3.296875 -1.359375q-2.046875 0 -4.09375 1.078125q-0.5 0.25 -0.703125 0.25q-0.28125 0 -0.453125 -0.1875q-0.171875 -0.1875 -0.171875 -0.53125l0 -8.703125l9.15625 0q0.46875 0 0.671875 0.1875q0.203125 0.1875 0.203125 0.484375q0 0.28125 -0.203125 0.46875q-0.203125 0.1875 -0.671875 0.1875l-7.84375 0z" fill-rule="nonzero"/><path fill="#000000" d="m776.97833 428.42313q1.21875 -1.796875 2.5 -2.65625q1.296875 -0.859375 2.875 -0.859375q2.09375 0 3.71875 1.75q1.625 1.734375 1.625 4.296875q0 2.34375 -1.484375 4.296875q-1.484375 1.9375 -4.09375 1.9375q-1.703125 0 -3.1875 -1.046875q-1.46875 -1.046875 -2.3125 -3.21875q-1.046875 -2.703125 -1.046875 -5.984375q0 -2.46875 0.984375 -4.59375q0.75 -1.640625 2.0 -2.875q1.25 -1.25 2.90625 -2.03125q1.671875 -0.796875 3.609375 -0.796875q1.3125 0 2.1875 0.53125q0.375 0.234375 0.375 0.625q0 0.28125 -0.171875 0.46875q-0.171875 0.171875 -0.4375 0.171875q-0.203125 0 -0.484375 -0.15625q-0.640625 -0.3125 -1.59375 -0.3125q-3.046875 0 -5.5625 2.625q-2.5 2.609375 -2.5 6.21875q0 0.515625 0.09375 1.609375zm0.296875 2.171875q0.59375 2.84375 1.859375 4.0625q1.28125 1.21875 3.015625 1.21875q1.75 0 2.984375 -1.359375q1.25 -1.375 1.25 -3.5625q0 -2.046875 -1.25 -3.390625q-1.25 -1.34375 -2.828125 -1.34375q-1.515625 0 -2.921875 1.296875q-0.9375 0.859375 -2.109375 3.078125z" fill-rule="nonzero"/><path fill="#000000" d="m785.30646 495.0325l0 -0.59375l-9.40625 0l0 1.15625q0 0.46875 -0.1875 0.671875q-0.171875 0.203125 -0.46875 0.203125q-0.28125 0 -0.46875 -0.203125q-0.1875 -0.203125 -0.1875 -0.671875l0 -2.484375l12.046875 0l0 2.09375l-5.28125 16.87497q-0.125 0.40625 -0.296875 0.546875q-0.171875 0.125 -0.390625 0.125q-0.28125 0 -0.46875 -0.1875q-0.1875 -0.1875 -0.1875 -0.4375q0 -0.15621948 0.09375 -0.43746948l5.203125 -16.65625z" fill-rule="nonzero"/><path fill="#000000" d="m783.5877 578.5481q1.640625 0.796875 2.46875 2.109375q0.84375 1.296875 0.84375 2.796875q0 2.328125 -1.75 4.03125q-1.75 1.703125 -4.25 1.703125q-2.5 0 -4.25 -1.703125q-1.75 -1.703125 -1.75 -4.03125q0 -1.484375 0.828125 -2.78125q0.84375 -1.3125 2.5 -2.125q-1.4375 -0.828125 -2.09375 -1.71875q-0.90625 -1.265625 -0.90625 -2.796875q0 -2.15625 1.65625 -3.765625q1.671875 -1.625 4.015625 -1.625q2.359375 0 4.015625 1.625q1.65625 1.609375 1.65625 3.765625q0 1.53125 -0.90625 2.78125q-0.640625 0.90625 -2.078125 1.734375zm1.640625 -4.46875q0 -1.6875 -1.265625 -2.890625q-1.25 -1.21875 -3.078125 -1.21875q-1.8125 0 -3.078125 1.21875q-1.25 1.21875 -1.25 2.875q0 1.53125 1.234375 2.6875q1.25 1.140625 3.09375 1.140625q1.859375 0 3.09375 -1.140625q1.25 -1.15625 1.25 -2.671875zm0.359375 9.40625q0 -1.734375 -1.34375 -3.015625q-1.34375 -1.28125 -3.34375 -1.28125q-2.0 0 -3.34375 1.28125q-1.34375 1.28125 -1.34375 3.0q0 1.78125 1.34375 3.09375q1.359375 1.3125 3.34375 1.3125q1.984375 0 3.328125 -1.3125q1.359375 -1.3125 1.359375 -3.078125z" fill-rule="nonzero"/><path fill="#000000" d="m786.2752 653.6262q-1.015625 1.796875 -2.421875 2.703125q-1.390625 0.90625 -2.859375 0.90625q-1.359375 0 -2.640625 -0.78125q-1.265625 -0.78125 -2.015625 -2.28125q-0.75 -1.515625 -0.75 -3.171875q0 -2.40625 1.484375 -4.375q1.5 -1.984375 4.0 -1.984375q1.78125 0 3.25 1.109375q1.46875 1.109375 2.28125 3.21875q1.046875 2.703125 1.046875 6.28125q0 2.78125 -0.890625 4.625q-0.59375 1.25 -1.75 2.421875q-1.140625 1.171875 -2.578125 1.90625q-1.96875 0.984375 -4.09375 0.984375q-1.40625 0 -2.296875 -0.53125q-0.40625 -0.25 -0.40625 -0.625q0 -0.265625 0.1875 -0.4375q0.1875 -0.1875 0.453125 -0.1875q0.1875 0 0.546875 0.171875q0.609375 0.296875 1.40625 0.296875q3.328125 0 5.71875 -2.390625q2.390625 -2.40625 2.390625 -6.015625q0 -0.65625 -0.0625 -1.84375zm-0.25 -2.1875q-0.828125 -3.171875 -2.0625 -4.3125q-1.21875 -1.15625 -2.859375 -1.15625q-1.671875 0 -2.9375 1.40625q-1.265625 1.40625 -1.265625 3.609375q0 2.140625 1.265625 3.546875q1.265625 1.390625 2.859375 1.390625q0.921875 0 1.8125 -0.5q0.90625 -0.5 1.703125 -1.5q0.515625 -0.671875 1.484375 -2.484375z" fill-rule="nonzero"/><path fill="#000000" fill-opacity="0.0" d="m184.18636 50.233597l561.6693 -1.4803162" fill-rule="evenodd"/><path stroke="#000000" stroke-width="1.0" stroke-linejoin="round" stroke-linecap="butt" d="m184.18636 50.233597l555.6693 -1.4645004" fill-rule="evenodd"/><path fill="#000000" stroke="#000000" stroke-width="1.0" stroke-linecap="butt" d="m739.86005 50.420822l4.5336914 -1.6636887l-4.5424194 -1.6397667z" fill-rule="evenodd"/><path fill="#000000" fill-opacity="0.0" d="m182.66405 133.95276l579.9685 -80.66142" fill-rule="evenodd"/><path stroke="#000000" stroke-width="1.0" stroke-linejoin="round" stroke-linecap="butt" d="m182.66405 133.95276l574.02563 -79.8349" fill-rule="evenodd"/><path fill="#000000" stroke="#000000" stroke-width="1.0" stroke-linecap="butt" d="m756.9173 55.75384l4.267273 -2.2611198l-4.722351 -1.010849z" fill-rule="evenodd"/><path fill="#000000" fill-opacity="0.0" d="m184.18636 210.06299l575.4016 -156.7874" fill-rule="evenodd"/><path stroke="#000000" stroke-width="1.0" stroke-linejoin="round" stroke-linecap="butt" d="m184.18636 210.06299l569.6126 -155.21" fill-rule="evenodd"/><path fill="#000000" stroke="#000000" stroke-width="1.0" stroke-linecap="butt" d="m754.2332 56.44661l3.9442139 -2.786686l-4.812683 -0.40057373z" fill-rule="evenodd"/><path fill="#000000" fill-opacity="0.0" d="m184.18636 286.17322l575.4016 -231.37007" fill-rule="evenodd"/><path stroke="#000000" stroke-width="1.0" stroke-linejoin="round" stroke-linecap="butt" d="m184.18636 286.17322l569.8347 -229.13164" fill-rule="evenodd"/><path fill="#000000" stroke="#000000" stroke-width="1.0" stroke-linecap="butt" d="m754.6373 58.57406l3.5942383 -3.2255135l-4.82666 0.16054916z" fill-rule="evenodd"/><path fill="#000000" fill-opacity="0.0" d="m182.66405 363.8058l573.8583 -307.46457" fill-rule="evenodd"/><path stroke="#000000" stroke-width="1.0" stroke-linejoin="round" stroke-linecap="butt" d="m182.66405 363.8058l568.5695 -304.63095" fill-rule="evenodd"/><path fill="#000000" stroke="#000000" stroke-width="1.0" stroke-linecap="butt" d="m752.0137 60.630753l3.2200317 -3.5991325l-4.7801514 0.68727875z" fill-rule="evenodd"/><path fill="#000000" fill-opacity="0.0" d="m182.66405 438.3937l576.9134 -385.10236" fill-rule="evenodd"/><path stroke="#000000" stroke-width="1.0" stroke-linejoin="round" stroke-linecap="butt" d="m182.66405 438.3937l571.92303 -381.7712" fill-rule="evenodd"/><path fill="#000000" stroke="#000000" stroke-width="1.0" stroke-linecap="butt" d="m755.50415 57.996277l2.8573608 -3.893299l-4.6914673 1.1457329z" fill-rule="evenodd"/><path fill="#000000" fill-opacity="0.0" d="m190.27559 508.4147l570.83466 -456.69293" fill-rule="evenodd"/><path stroke="#000000" stroke-width="1.0" stroke-linejoin="round" stroke-linecap="butt" d="m190.27559 508.4147l566.14954 -452.9446" fill-rule="evenodd"/><path fill="#000000" stroke="#000000" stroke-width="1.0" stroke-linecap="butt" d="m757.457 56.75984l2.5117188 -4.1247787l-4.5754395 1.5452614z" fill-rule="evenodd"/><path fill="#000000" fill-opacity="0.0" d="m184.18636 589.09186l575.4016 -534.2992" fill-rule="evenodd"/><path stroke="#000000" stroke-width="1.0" stroke-linejoin="round" stroke-linecap="butt" d="m184.18636 589.09186l571.0048 -530.2165" fill-rule="evenodd"/><path fill="#000000" stroke="#000000" stroke-width="1.0" stroke-linecap="butt" d="m756.31506 60.085728l2.2015991 -4.2983246l-4.449402 1.8775635z" fill-rule="evenodd"/><path fill="#000000" fill-opacity="0.0" d="m182.66405 665.2021l578.45667 -611.937" fill-rule="evenodd"/><path stroke="#000000" stroke-width="1.0" stroke-linejoin="round" stroke-linecap="butt" d="m182.66405 665.2021l574.33496 -607.5768" fill-rule="evenodd"/><path fill="#000000" stroke="#000000" stroke-width="1.0" stroke-linecap="butt" d="m758.1994 58.759987l1.9170532 -4.432522l-4.317749 2.1632156z" fill-rule="evenodd"/><path fill="#000000" fill-opacity="0.0" d="m184.18636 592.1365l578.42523 -468.8504" fill-rule="evenodd"/><path stroke="#000000" stroke-width="3.0" stroke-linejoin="round" stroke-linecap="butt" d="m184.18636 592.1365l564.44196 -457.51605" fill-rule="evenodd"/><path fill="#000000" stroke="#000000" stroke-width="3.0" stroke-linecap="butt" d="m751.7485 138.46988l7.4560547 -12.422173l-13.696472 4.7232895z" fill-rule="evenodd"/><path fill="#00ff00" d="m40.755905 578.63257l77.25984 0l0 -9.763794l19.527557 19.527527l-19.527557 19.527588l0 -9.763794l-77.25984 0z" fill-rule="evenodd"/><path stroke="#000000" stroke-width="1.0" stroke-linejoin="round" stroke-linecap="butt" d="m40.755905 578.63257l77.25984 0l0 -9.763794l19.527557 19.527527l-19.527557 19.527588l0 -9.763794l-77.25984 0z" fill-rule="evenodd"/><path fill="#00ff00" d="m808.3018 114.30446l75.55908 0l0 -9.763779l19.527527 19.527565l-19.527527 19.52755l0 -9.763779l-75.55908 0z" fill-rule="evenodd"/><path stroke="#000000" stroke-width="1.0" stroke-linejoin="round" stroke-linecap="butt" d="m808.3018 114.30446l75.55908 0l0 -9.763779l19.527527 19.527565l-19.527527 19.52755l0 -9.763779l-75.55908 0z" fill-rule="evenodd"/></g></svg>